<svg width="509" height="317" viewBox="0 0 509 317" fill="none" xmlns="http://www.w3.org/2000/svg">
<g opacity="0.15">
<mask id="path-1-outside-1_271_70" maskUnits="userSpaceOnUse" x="0.573486" y="0.5" width="508" height="317" fill="black">
<rect fill="white" x="0.573486" y="0.5" width="508" height="317"/>
<path d="M74.0235 112L68.6235 89.65H38.3235L33.0735 112H7.57349L38.9235 8.05H68.7735L100.123 112H74.0235ZM42.5235 71.8H64.4235L53.4735 25.9L42.5235 71.8Z"/>
<path d="M170.6 56.95C177.5 58.25 183.1 60.8 187.4 64.6C191.8 68.4 194 74.1 194 81.7C194 92.8 190 100.65 182 105.25C174.1 109.75 163 112 148.7 112H115.25V8.05H144.65C159.25 8.05 170.4 10.15 178.1 14.35C185.8 18.45 189.65 25.2 189.65 34.6C189.65 40.7 187.8 45.65 184.1 49.45C180.5 53.15 176 55.65 170.6 56.95ZM139.85 25.45V49.6H149C159.4 49.6 164.6 45.4 164.6 37C164.6 32.8 163.2 29.85 160.4 28.15C157.6 26.35 153.15 25.45 147.05 25.45H139.85ZM148.85 94.15C155.35 94.15 160.25 93.2 163.55 91.3C166.95 89.3 168.65 85.65 168.65 80.35C168.65 70.75 162.65 65.95 150.65 65.95H139.85V94.15H148.85Z"/>
<path d="M257.328 5.5C272.128 5.5 283.628 10.25 291.828 19.75C300.128 29.25 304.278 42.65 304.278 59.95C304.278 71.25 302.378 81 298.578 89.2C294.878 97.4 289.478 103.7 282.378 108.1C275.378 112.4 267.028 114.55 257.328 114.55C247.628 114.55 239.278 112.4 232.278 108.1C225.278 103.8 219.878 97.6 216.078 89.5C212.378 81.3 210.528 71.45 210.528 59.95C210.528 48.75 212.378 39.05 216.078 30.85C219.878 22.65 225.278 16.4 232.278 12.1C239.278 7.7 247.628 5.5 257.328 5.5ZM257.328 23.5C250.228 23.5 244.928 26.4 241.428 32.2C238.028 37.9 236.328 47.15 236.328 59.95C236.328 72.75 238.078 82.05 241.578 87.85C245.078 93.65 250.328 96.55 257.328 96.55C264.528 96.55 269.828 93.7 273.228 88C276.728 82.2 278.478 72.85 278.478 59.95C278.478 47.05 276.728 37.75 273.228 32.05C269.728 26.35 264.428 23.5 257.328 23.5Z"/>
<path d="M406.189 77.5C406.189 84.6 404.639 90.95 401.539 96.55C398.539 102.15 393.989 106.55 387.889 109.75C381.789 112.95 374.339 114.55 365.539 114.55C352.339 114.55 342.289 111.2 335.389 104.5C328.489 97.8 325.039 88.8 325.039 77.5V8.05H349.639V76.45C349.639 83.15 350.889 88.15 353.389 91.45C355.989 94.65 360.039 96.25 365.539 96.25C371.139 96.25 375.189 94.65 377.689 91.45C380.289 88.15 381.589 83.15 381.589 76.45V8.05H406.189V77.5Z"/>
<path d="M502.844 8.05L500.444 26.95H474.794V112H450.194V26.95H423.344V8.05H502.844Z"/>
<path d="M411.575 312H387.425L385.625 271.35C385.125 261.65 384.875 253 384.875 245.4C384.875 239.6 385.025 234.1 385.325 228.9L369.275 301.05H346.025L328.925 228.9C329.525 237.6 329.825 245.8 329.825 253.5C329.825 259.3 329.675 265.35 329.375 271.65L327.575 312H303.575L311.375 208.05H342.425L358.025 278.55L372.575 208.05H403.775L411.575 312Z"/>
<path d="M497.545 208.05L494.995 225.6H458.395V250.5H490.345V267.75H458.395V294.3H497.545V312H433.795V208.05H497.545Z"/>
</mask>
<path d="M74.0235 112L68.6235 89.65H38.3235L33.0735 112H7.57349L38.9235 8.05H68.7735L100.123 112H74.0235ZM42.5235 71.8H64.4235L53.4735 25.9L42.5235 71.8Z" fill="#0E0E0E"/>
<path d="M170.6 56.95C177.5 58.25 183.1 60.8 187.4 64.6C191.8 68.4 194 74.1 194 81.7C194 92.8 190 100.65 182 105.25C174.1 109.75 163 112 148.7 112H115.25V8.05H144.65C159.25 8.05 170.4 10.15 178.1 14.35C185.8 18.45 189.65 25.2 189.65 34.6C189.65 40.7 187.8 45.65 184.1 49.45C180.5 53.15 176 55.65 170.6 56.95ZM139.85 25.45V49.6H149C159.4 49.6 164.6 45.4 164.6 37C164.6 32.8 163.2 29.85 160.4 28.15C157.6 26.35 153.15 25.45 147.05 25.45H139.85ZM148.85 94.15C155.35 94.15 160.25 93.2 163.55 91.3C166.95 89.3 168.65 85.65 168.65 80.35C168.65 70.75 162.65 65.95 150.65 65.95H139.85V94.15H148.85Z" fill="#0E0E0E"/>
<path d="M257.328 5.5C272.128 5.5 283.628 10.25 291.828 19.75C300.128 29.25 304.278 42.65 304.278 59.95C304.278 71.25 302.378 81 298.578 89.2C294.878 97.4 289.478 103.7 282.378 108.1C275.378 112.4 267.028 114.55 257.328 114.55C247.628 114.55 239.278 112.4 232.278 108.1C225.278 103.8 219.878 97.6 216.078 89.5C212.378 81.3 210.528 71.45 210.528 59.95C210.528 48.75 212.378 39.05 216.078 30.85C219.878 22.65 225.278 16.4 232.278 12.1C239.278 7.7 247.628 5.5 257.328 5.5ZM257.328 23.5C250.228 23.5 244.928 26.4 241.428 32.2C238.028 37.9 236.328 47.15 236.328 59.95C236.328 72.75 238.078 82.05 241.578 87.85C245.078 93.65 250.328 96.55 257.328 96.55C264.528 96.55 269.828 93.7 273.228 88C276.728 82.2 278.478 72.85 278.478 59.95C278.478 47.05 276.728 37.75 273.228 32.05C269.728 26.35 264.428 23.5 257.328 23.5Z" fill="#0E0E0E"/>
<path d="M406.189 77.5C406.189 84.6 404.639 90.95 401.539 96.55C398.539 102.15 393.989 106.55 387.889 109.75C381.789 112.95 374.339 114.55 365.539 114.55C352.339 114.55 342.289 111.2 335.389 104.5C328.489 97.8 325.039 88.8 325.039 77.5V8.05H349.639V76.45C349.639 83.15 350.889 88.15 353.389 91.45C355.989 94.65 360.039 96.25 365.539 96.25C371.139 96.25 375.189 94.65 377.689 91.45C380.289 88.15 381.589 83.15 381.589 76.45V8.05H406.189V77.5Z" fill="#0E0E0E"/>
<path d="M502.844 8.05L500.444 26.95H474.794V112H450.194V26.95H423.344V8.05H502.844Z" fill="#0E0E0E"/>
<path d="M411.575 312H387.425L385.625 271.35C385.125 261.65 384.875 253 384.875 245.4C384.875 239.6 385.025 234.1 385.325 228.9L369.275 301.05H346.025L328.925 228.9C329.525 237.6 329.825 245.8 329.825 253.5C329.825 259.3 329.675 265.35 329.375 271.65L327.575 312H303.575L311.375 208.05H342.425L358.025 278.55L372.575 208.05H403.775L411.575 312Z" fill="#0E0E0E"/>
<path d="M497.545 208.05L494.995 225.6H458.395V250.5H490.345V267.75H458.395V294.3H497.545V312H433.795V208.05H497.545Z" fill="#0E0E0E"/>
<path d="M74.0235 112L68.6235 89.65H38.3235L33.0735 112H7.57349L38.9235 8.05H68.7735L100.123 112H74.0235ZM42.5235 71.8H64.4235L53.4735 25.9L42.5235 71.8Z" stroke="#F2F7FF" stroke-width="10" mask="url(#path-1-outside-1_271_70)"/>
<path d="M170.6 56.95C177.5 58.25 183.1 60.8 187.4 64.6C191.8 68.4 194 74.1 194 81.7C194 92.8 190 100.65 182 105.25C174.1 109.75 163 112 148.7 112H115.25V8.05H144.65C159.25 8.05 170.4 10.15 178.1 14.35C185.8 18.45 189.65 25.2 189.65 34.6C189.65 40.7 187.8 45.65 184.1 49.45C180.5 53.15 176 55.65 170.6 56.95ZM139.85 25.45V49.6H149C159.4 49.6 164.6 45.4 164.6 37C164.6 32.8 163.2 29.85 160.4 28.15C157.6 26.35 153.15 25.45 147.05 25.45H139.85ZM148.85 94.15C155.35 94.15 160.25 93.2 163.55 91.3C166.95 89.3 168.65 85.65 168.65 80.35C168.65 70.75 162.65 65.95 150.65 65.95H139.85V94.15H148.85Z" stroke="#F2F7FF" stroke-width="10" mask="url(#path-1-outside-1_271_70)"/>
<path d="M257.328 5.5C272.128 5.5 283.628 10.25 291.828 19.75C300.128 29.25 304.278 42.65 304.278 59.95C304.278 71.25 302.378 81 298.578 89.2C294.878 97.4 289.478 103.7 282.378 108.1C275.378 112.4 267.028 114.55 257.328 114.55C247.628 114.55 239.278 112.4 232.278 108.1C225.278 103.8 219.878 97.6 216.078 89.5C212.378 81.3 210.528 71.45 210.528 59.95C210.528 48.75 212.378 39.05 216.078 30.85C219.878 22.65 225.278 16.4 232.278 12.1C239.278 7.7 247.628 5.5 257.328 5.5ZM257.328 23.5C250.228 23.5 244.928 26.4 241.428 32.2C238.028 37.9 236.328 47.15 236.328 59.95C236.328 72.75 238.078 82.05 241.578 87.85C245.078 93.65 250.328 96.55 257.328 96.55C264.528 96.55 269.828 93.7 273.228 88C276.728 82.2 278.478 72.85 278.478 59.95C278.478 47.05 276.728 37.75 273.228 32.05C269.728 26.35 264.428 23.5 257.328 23.5Z" stroke="#F2F7FF" stroke-width="10" mask="url(#path-1-outside-1_271_70)"/>
<path d="M406.189 77.5C406.189 84.6 404.639 90.95 401.539 96.55C398.539 102.15 393.989 106.55 387.889 109.75C381.789 112.95 374.339 114.55 365.539 114.55C352.339 114.55 342.289 111.2 335.389 104.5C328.489 97.8 325.039 88.8 325.039 77.5V8.05H349.639V76.45C349.639 83.15 350.889 88.15 353.389 91.45C355.989 94.65 360.039 96.25 365.539 96.25C371.139 96.25 375.189 94.65 377.689 91.45C380.289 88.15 381.589 83.15 381.589 76.45V8.05H406.189V77.5Z" stroke="#F2F7FF" stroke-width="10" mask="url(#path-1-outside-1_271_70)"/>
<path d="M502.844 8.05L500.444 26.95H474.794V112H450.194V26.95H423.344V8.05H502.844Z" stroke="#F2F7FF" stroke-width="10" mask="url(#path-1-outside-1_271_70)"/>
<path d="M411.575 312H387.425L385.625 271.35C385.125 261.65 384.875 253 384.875 245.4C384.875 239.6 385.025 234.1 385.325 228.9L369.275 301.05H346.025L328.925 228.9C329.525 237.6 329.825 245.8 329.825 253.5C329.825 259.3 329.675 265.35 329.375 271.65L327.575 312H303.575L311.375 208.05H342.425L358.025 278.55L372.575 208.05H403.775L411.575 312Z" stroke="#F2F7FF" stroke-width="10" mask="url(#path-1-outside-1_271_70)"/>
<path d="M497.545 208.05L494.995 225.6H458.395V250.5H490.345V267.75H458.395V294.3H497.545V312H433.795V208.05H497.545Z" stroke="#F2F7FF" stroke-width="10" mask="url(#path-1-outside-1_271_70)"/>
</g>
</svg>
