<svg width="30" height="34" viewBox="0 0 30 34" fill="none" xmlns="http://www.w3.org/2000/svg">
<path d="M3.33333 33.3333C2.41667 33.3333 1.63194 33.0069 0.979167 32.3542C0.326389 31.7014 0 30.9167 0 30V6.66667C0 5.75 0.326389 4.96528 0.979167 4.3125C1.63194 3.65972 2.41667 3.33333 3.33333 3.33333H5V0H8.33333V3.33333H21.6667V0H25V3.33333H26.6667C27.5833 3.33333 28.3681 3.65972 29.0208 4.3125C29.6736 4.96528 30 5.75 30 6.66667V30C30 30.9167 29.6736 31.7014 29.0208 32.3542C28.3681 33.0069 27.5833 33.3333 26.6667 33.3333H3.33333ZM3.33333 30H26.6667V13.3333H3.33333V30ZM3.33333 10H26.6667V6.66667H3.33333V10ZM15 20C14.5278 20 14.1319 19.8403 13.8125 19.5208C13.4931 19.2014 13.3333 18.8056 13.3333 18.3333C13.3333 17.8611 13.4931 17.4653 13.8125 17.1458C14.1319 16.8264 14.5278 16.6667 15 16.6667C15.4722 16.6667 15.8681 16.8264 16.1875 17.1458C16.5069 17.4653 16.6667 17.8611 16.6667 18.3333C16.6667 18.8056 16.5069 19.2014 16.1875 19.5208C15.8681 19.8403 15.4722 20 15 20ZM8.33333 20C7.86111 20 7.46528 19.8403 7.14583 19.5208C6.82639 19.2014 6.66667 18.8056 6.66667 18.3333C6.66667 17.8611 6.82639 17.4653 7.14583 17.1458C7.46528 16.8264 7.86111 16.6667 8.33333 16.6667C8.80556 16.6667 9.20139 16.8264 9.52083 17.1458C9.84028 17.4653 10 17.8611 10 18.3333C10 18.8056 9.84028 19.2014 9.52083 19.5208C9.20139 19.8403 8.80556 20 8.33333 20ZM21.6667 20C21.1944 20 20.7986 19.8403 20.4792 19.5208C20.1597 19.2014 20 18.8056 20 18.3333C20 17.8611 20.1597 17.4653 20.4792 17.1458C20.7986 16.8264 21.1944 16.6667 21.6667 16.6667C22.1389 16.6667 22.5347 16.8264 22.8542 17.1458C23.1736 17.4653 23.3333 17.8611 23.3333 18.3333C23.3333 18.8056 23.1736 19.2014 22.8542 19.5208C22.5347 19.8403 22.1389 20 21.6667 20ZM15 26.6667C14.5278 26.6667 14.1319 26.5069 13.8125 26.1875C13.4931 25.8681 13.3333 25.4722 13.3333 25C13.3333 24.5278 13.4931 24.1319 13.8125 23.8125C14.1319 23.4931 14.5278 23.3333 15 23.3333C15.4722 23.3333 15.8681 23.4931 16.1875 23.8125C16.5069 24.1319 16.6667 24.5278 16.6667 25C16.6667 25.4722 16.5069 25.8681 16.1875 26.1875C15.8681 26.5069 15.4722 26.6667 15 26.6667ZM8.33333 26.6667C7.86111 26.6667 7.46528 26.5069 7.14583 26.1875C6.82639 25.8681 6.66667 25.4722 6.66667 25C6.66667 24.5278 6.82639 24.1319 7.14583 23.8125C7.46528 23.4931 7.86111 23.3333 8.33333 23.3333C8.80556 23.3333 9.20139 23.4931 9.52083 23.8125C9.84028 24.1319 10 24.5278 10 25C10 25.4722 9.84028 25.8681 9.52083 26.1875C9.20139 26.5069 8.80556 26.6667 8.33333 26.6667ZM21.6667 26.6667C21.1944 26.6667 20.7986 26.5069 20.4792 26.1875C20.1597 25.8681 20 25.4722 20 25C20 24.5278 20.1597 24.1319 20.4792 23.8125C20.7986 23.4931 21.1944 23.3333 21.6667 23.3333C22.1389 23.3333 22.5347 23.4931 22.8542 23.8125C23.1736 24.1319 23.3333 24.5278 23.3333 25C23.3333 25.4722 23.1736 25.8681 22.8542 26.1875C22.5347 26.5069 22.1389 26.6667 21.6667 26.6667Z" fill="#5793ED"/>
</svg>
