<svg width="23" height="18" viewBox="0 0 23 18" fill="none" xmlns="http://www.w3.org/2000/svg">
<path d="M13.1313 6.68641V4.79753C13.6869 4.53827 14.2551 4.34382 14.8359 4.21419C15.4167 4.08456 16.0269 4.01975 16.6667 4.01975C17.1044 4.01975 17.5337 4.05679 17.9545 4.13086C18.3754 4.20493 18.7879 4.29753 19.1919 4.40864V6.18641C18.7879 6.01975 18.3796 5.89475 17.9672 5.81141C17.5547 5.72808 17.1212 5.68641 16.6667 5.68641C16.0269 5.68641 15.4125 5.77438 14.8232 5.9503C14.234 6.12623 13.67 6.3716 13.1313 6.68641ZM13.1313 12.7975V10.9086C13.6869 10.6494 14.2551 10.4549 14.8359 10.3253C15.4167 10.1957 16.0269 10.1309 16.6667 10.1309C17.1044 10.1309 17.5337 10.1679 17.9545 10.242C18.3754 10.316 18.7879 10.4086 19.1919 10.5197V12.2975C18.7879 12.1309 18.3796 12.0059 17.9672 11.9225C17.5547 11.8392 17.1212 11.7975 16.6667 11.7975C16.0269 11.7975 15.4125 11.8809 14.8232 12.0475C14.234 12.2142 13.67 12.4642 13.1313 12.7975ZM13.1313 9.74197V7.85308C13.6869 7.59382 14.2551 7.39938 14.8359 7.26975C15.4167 7.14012 16.0269 7.0753 16.6667 7.0753C17.1044 7.0753 17.5337 7.11234 17.9545 7.18641C18.3754 7.26049 18.7879 7.35308 19.1919 7.46419V9.24197C18.7879 9.0753 18.3796 8.9503 17.9672 8.86697C17.5547 8.78364 17.1212 8.74197 16.6667 8.74197C16.0269 8.74197 15.4125 8.82993 14.8232 9.00586C14.234 9.18179 13.67 9.42716 13.1313 9.74197ZM5.55556 13.4642C6.3468 13.4642 7.117 13.5614 7.86616 13.7559C8.61532 13.9503 9.36027 14.242 10.101 14.6309V3.68641C9.41078 3.24197 8.67845 2.90864 7.90404 2.68641C7.12963 2.46419 6.3468 2.35308 5.55556 2.35308C4.9495 2.35308 4.34764 2.4179 3.75 2.54753C3.15236 2.67716 2.57576 2.8716 2.0202 3.13086V14.1309C2.60943 13.9086 3.19444 13.742 3.77525 13.6309C4.35606 13.5197 4.9495 13.4642 5.55556 13.4642ZM12.1212 14.6309C12.862 14.242 13.6069 13.9503 14.3561 13.7559C15.1052 13.5614 15.8754 13.4642 16.6667 13.4642C17.2727 13.4642 17.8662 13.5197 18.447 13.6309C19.0278 13.742 19.6128 13.9086 20.202 14.1309V3.13086C19.6465 2.8716 19.0699 2.67716 18.4722 2.54753C17.8746 2.4179 17.2727 2.35308 16.6667 2.35308C15.8754 2.35308 15.0926 2.46419 14.3182 2.68641C13.5438 2.90864 12.8114 3.24197 12.1212 3.68641V14.6309ZM11.1111 17.9086C10.303 17.2049 9.42761 16.6586 8.48485 16.2697C7.54209 15.8809 6.56566 15.6864 5.55556 15.6864C4.84849 15.6864 4.15404 15.7883 3.47222 15.992C2.7904 16.1957 2.13805 16.4827 1.51515 16.8531C1.16162 17.0568 0.820707 17.0475 0.492424 16.8253C0.164141 16.6031 0 16.279 0 15.8531V2.46419C0 2.26049 0.0462963 2.06604 0.138889 1.88086C0.231481 1.69567 0.37037 1.55679 0.555556 1.46419C1.32997 1.01975 2.13805 0.686415 2.9798 0.464193C3.82155 0.24197 4.68013 0.130859 5.55556 0.130859C6.53199 0.130859 7.48738 0.269748 8.42172 0.547526C9.35606 0.825304 10.2525 1.24197 11.1111 1.79753C11.9697 1.24197 12.8662 0.825304 13.8005 0.547526C14.7349 0.269748 15.6902 0.130859 16.6667 0.130859C17.5421 0.130859 18.4007 0.24197 19.2424 0.464193C20.0842 0.686415 20.8923 1.01975 21.6667 1.46419C21.8519 1.55679 21.9907 1.69567 22.0833 1.88086C22.1759 2.06604 22.2222 2.26049 22.2222 2.46419V15.8531C22.2222 16.279 22.0581 16.6031 21.7298 16.8253C21.4015 17.0475 21.0606 17.0568 20.7071 16.8531C20.0842 16.4827 19.4318 16.1957 18.75 15.992C18.0682 15.7883 17.3737 15.6864 16.6667 15.6864C15.6566 15.6864 14.6801 15.8809 13.7374 16.2697C12.7946 16.6586 11.9192 17.2049 11.1111 17.9086Z" fill="#5793ED"/>
</svg>
