<svg width="501" height="334" viewBox="0 0 501 334" fill="none" xmlns="http://www.w3.org/2000/svg">
<g opacity="0.15">
<mask id="path-1-outside-1_316_6" maskUnits="userSpaceOnUse" x="-0.209991" y="0.300049" width="501" height="334" fill="black">
<rect fill="white" x="-0.209991" y="0.300049" width="501" height="334"/>
<path d="M92.3 8.19005L89.41 28.08H47.93V56.3001H84.14V75.8501H47.93V105.94H92.3V126H20.05V8.19005H92.3Z"/>
<path d="M150.842 8.19005C169.316 8.19005 184.106 12.3834 195.212 20.7701C206.432 29.0434 212.042 44.2867 212.042 66.5C212.042 88.3734 206.602 103.787 195.722 112.74C184.842 121.58 170.732 126 153.392 126H118.032V8.19005H150.842ZM145.912 28.4201V105.77H155.092C164.272 105.77 171.242 102.937 176.002 97.2701C180.762 91.4901 183.142 81.2334 183.142 66.5C183.142 56.4134 181.952 48.5934 179.572 43.0401C177.192 37.4867 173.962 33.6901 169.882 31.6501C165.802 29.4967 160.759 28.4201 154.752 28.4201H145.912Z"/>
<path d="M327.535 86.9001C327.535 94.9467 325.778 102.143 322.265 108.49C318.865 114.837 313.708 119.823 306.795 123.45C299.882 127.077 291.438 128.89 281.465 128.89C266.505 128.89 255.115 125.093 247.295 117.5C239.475 109.907 235.565 99.7067 235.565 86.9001V8.19005H263.445V85.7101C263.445 93.3034 264.862 98.9701 267.695 102.71C270.642 106.337 275.232 108.15 281.465 108.15C287.812 108.15 292.402 106.337 295.235 102.71C298.182 98.9701 299.655 93.3034 299.655 85.7101V8.19005H327.535V86.9001Z"/>
<path d="M404.607 5.30005C411.974 5.30005 418.491 6.37672 424.157 8.53005C429.937 10.6834 435.377 13.9134 440.477 18.2201L427.217 34.0301C423.704 31.3101 420.247 29.2701 416.847 27.9101C413.447 26.55 409.821 25.87 405.967 25.87C398.034 25.87 391.744 29.2134 387.097 35.9C382.564 42.5867 380.297 52.9001 380.297 66.8401C380.297 80.5534 382.564 90.7534 387.097 97.4401C391.744 104.013 398.147 107.3 406.307 107.3C410.614 107.3 414.524 106.507 418.037 104.92C421.551 103.22 425.347 100.84 429.427 97.7801L441.837 113.76C437.417 118.18 432.034 121.807 425.687 124.64C419.454 127.473 412.541 128.89 404.947 128.89C394.067 128.89 384.604 126.51 376.557 121.75C368.511 116.99 362.221 109.963 357.687 100.67C353.267 91.2634 351.057 79.9867 351.057 66.8401C351.057 54.0334 353.324 42.9834 357.857 33.69C362.504 24.3967 368.851 17.3701 376.897 12.61C385.057 7.73671 394.294 5.30005 404.607 5.30005Z"/>
<path d="M82.1 326L75.98 300.67H41.64L35.69 326H6.79001L42.32 208.19H76.15L111.68 326H82.1ZM46.4 280.44H71.22L58.81 228.42L46.4 280.44Z"/>
<path d="M200.937 208.19L198.217 229.61H169.147V326H141.267V229.61H110.837V208.19H200.937Z"/>
<path d="M248.543 208.19V326H220.663V208.19H248.543Z"/>
<path d="M326.568 205.3C343.341 205.3 356.375 210.683 365.668 221.45C375.075 232.217 379.778 247.403 379.778 267.01C379.778 279.817 377.625 290.867 373.318 300.16C369.125 309.453 363.005 316.593 354.958 321.58C347.025 326.453 337.561 328.89 326.568 328.89C315.575 328.89 306.111 326.453 298.178 321.58C290.245 316.707 284.125 309.68 279.818 300.5C275.625 291.207 273.528 280.043 273.528 267.01C273.528 254.317 275.625 243.323 279.818 234.03C284.125 224.737 290.245 217.653 298.178 212.78C306.111 207.793 315.575 205.3 326.568 205.3ZM326.568 225.7C318.521 225.7 312.515 228.987 308.548 235.56C304.695 242.02 302.768 252.503 302.768 267.01C302.768 281.517 304.751 292.057 308.718 298.63C312.685 305.203 318.635 308.49 326.568 308.49C334.728 308.49 340.735 305.26 344.588 298.8C348.555 292.227 350.538 281.63 350.538 267.01C350.538 252.39 348.555 241.85 344.588 235.39C340.621 228.93 334.615 225.7 326.568 225.7Z"/>
<path d="M495.787 326H460.257L426.257 234.71C427.39 243.663 428.24 251.597 428.807 258.51C429.487 265.31 429.827 273.413 429.827 282.82V326H405.007V208.19H439.687L474.537 299.65C472.044 284.123 470.797 269.503 470.797 255.79V208.19H495.787V326Z"/>
</mask>
<path d="M92.3 8.19005L89.41 28.08H47.93V56.3001H84.14V75.8501H47.93V105.94H92.3V126H20.05V8.19005H92.3Z" fill="#0E0E0E"/>
<path d="M150.842 8.19005C169.316 8.19005 184.106 12.3834 195.212 20.7701C206.432 29.0434 212.042 44.2867 212.042 66.5C212.042 88.3734 206.602 103.787 195.722 112.74C184.842 121.58 170.732 126 153.392 126H118.032V8.19005H150.842ZM145.912 28.4201V105.77H155.092C164.272 105.77 171.242 102.937 176.002 97.2701C180.762 91.4901 183.142 81.2334 183.142 66.5C183.142 56.4134 181.952 48.5934 179.572 43.0401C177.192 37.4867 173.962 33.6901 169.882 31.6501C165.802 29.4967 160.759 28.4201 154.752 28.4201H145.912Z" fill="#0E0E0E"/>
<path d="M327.535 86.9001C327.535 94.9467 325.778 102.143 322.265 108.49C318.865 114.837 313.708 119.823 306.795 123.45C299.882 127.077 291.438 128.89 281.465 128.89C266.505 128.89 255.115 125.093 247.295 117.5C239.475 109.907 235.565 99.7067 235.565 86.9001V8.19005H263.445V85.7101C263.445 93.3034 264.862 98.9701 267.695 102.71C270.642 106.337 275.232 108.15 281.465 108.15C287.812 108.15 292.402 106.337 295.235 102.71C298.182 98.9701 299.655 93.3034 299.655 85.7101V8.19005H327.535V86.9001Z" fill="#0E0E0E"/>
<path d="M404.607 5.30005C411.974 5.30005 418.491 6.37672 424.157 8.53005C429.937 10.6834 435.377 13.9134 440.477 18.2201L427.217 34.0301C423.704 31.3101 420.247 29.2701 416.847 27.9101C413.447 26.55 409.821 25.87 405.967 25.87C398.034 25.87 391.744 29.2134 387.097 35.9C382.564 42.5867 380.297 52.9001 380.297 66.8401C380.297 80.5534 382.564 90.7534 387.097 97.4401C391.744 104.013 398.147 107.3 406.307 107.3C410.614 107.3 414.524 106.507 418.037 104.92C421.551 103.22 425.347 100.84 429.427 97.7801L441.837 113.76C437.417 118.18 432.034 121.807 425.687 124.64C419.454 127.473 412.541 128.89 404.947 128.89C394.067 128.89 384.604 126.51 376.557 121.75C368.511 116.99 362.221 109.963 357.687 100.67C353.267 91.2634 351.057 79.9867 351.057 66.8401C351.057 54.0334 353.324 42.9834 357.857 33.69C362.504 24.3967 368.851 17.3701 376.897 12.61C385.057 7.73671 394.294 5.30005 404.607 5.30005Z" fill="#0E0E0E"/>
<path d="M82.1 326L75.98 300.67H41.64L35.69 326H6.79001L42.32 208.19H76.15L111.68 326H82.1ZM46.4 280.44H71.22L58.81 228.42L46.4 280.44Z" fill="#0E0E0E"/>
<path d="M200.937 208.19L198.217 229.61H169.147V326H141.267V229.61H110.837V208.19H200.937Z" fill="#0E0E0E"/>
<path d="M248.543 208.19V326H220.663V208.19H248.543Z" fill="#0E0E0E"/>
<path d="M326.568 205.3C343.341 205.3 356.375 210.683 365.668 221.45C375.075 232.217 379.778 247.403 379.778 267.01C379.778 279.817 377.625 290.867 373.318 300.16C369.125 309.453 363.005 316.593 354.958 321.58C347.025 326.453 337.561 328.89 326.568 328.89C315.575 328.89 306.111 326.453 298.178 321.58C290.245 316.707 284.125 309.68 279.818 300.5C275.625 291.207 273.528 280.043 273.528 267.01C273.528 254.317 275.625 243.323 279.818 234.03C284.125 224.737 290.245 217.653 298.178 212.78C306.111 207.793 315.575 205.3 326.568 205.3ZM326.568 225.7C318.521 225.7 312.515 228.987 308.548 235.56C304.695 242.02 302.768 252.503 302.768 267.01C302.768 281.517 304.751 292.057 308.718 298.63C312.685 305.203 318.635 308.49 326.568 308.49C334.728 308.49 340.735 305.26 344.588 298.8C348.555 292.227 350.538 281.63 350.538 267.01C350.538 252.39 348.555 241.85 344.588 235.39C340.621 228.93 334.615 225.7 326.568 225.7Z" fill="#0E0E0E"/>
<path d="M495.787 326H460.257L426.257 234.71C427.39 243.663 428.24 251.597 428.807 258.51C429.487 265.31 429.827 273.413 429.827 282.82V326H405.007V208.19H439.687L474.537 299.65C472.044 284.123 470.797 269.503 470.797 255.79V208.19H495.787V326Z" fill="#0E0E0E"/>
<path d="M92.3 8.19005L89.41 28.08H47.93V56.3001H84.14V75.8501H47.93V105.94H92.3V126H20.05V8.19005H92.3Z" stroke="#F2F7FF" stroke-width="10" mask="url(#path-1-outside-1_316_6)"/>
<path d="M150.842 8.19005C169.316 8.19005 184.106 12.3834 195.212 20.7701C206.432 29.0434 212.042 44.2867 212.042 66.5C212.042 88.3734 206.602 103.787 195.722 112.74C184.842 121.58 170.732 126 153.392 126H118.032V8.19005H150.842ZM145.912 28.4201V105.77H155.092C164.272 105.77 171.242 102.937 176.002 97.2701C180.762 91.4901 183.142 81.2334 183.142 66.5C183.142 56.4134 181.952 48.5934 179.572 43.0401C177.192 37.4867 173.962 33.6901 169.882 31.6501C165.802 29.4967 160.759 28.4201 154.752 28.4201H145.912Z" stroke="#F2F7FF" stroke-width="10" mask="url(#path-1-outside-1_316_6)"/>
<path d="M327.535 86.9001C327.535 94.9467 325.778 102.143 322.265 108.49C318.865 114.837 313.708 119.823 306.795 123.45C299.882 127.077 291.438 128.89 281.465 128.89C266.505 128.89 255.115 125.093 247.295 117.5C239.475 109.907 235.565 99.7067 235.565 86.9001V8.19005H263.445V85.7101C263.445 93.3034 264.862 98.9701 267.695 102.71C270.642 106.337 275.232 108.15 281.465 108.15C287.812 108.15 292.402 106.337 295.235 102.71C298.182 98.9701 299.655 93.3034 299.655 85.7101V8.19005H327.535V86.9001Z" stroke="#F2F7FF" stroke-width="10" mask="url(#path-1-outside-1_316_6)"/>
<path d="M404.607 5.30005C411.974 5.30005 418.491 6.37672 424.157 8.53005C429.937 10.6834 435.377 13.9134 440.477 18.2201L427.217 34.0301C423.704 31.3101 420.247 29.2701 416.847 27.9101C413.447 26.55 409.821 25.87 405.967 25.87C398.034 25.87 391.744 29.2134 387.097 35.9C382.564 42.5867 380.297 52.9001 380.297 66.8401C380.297 80.5534 382.564 90.7534 387.097 97.4401C391.744 104.013 398.147 107.3 406.307 107.3C410.614 107.3 414.524 106.507 418.037 104.92C421.551 103.22 425.347 100.84 429.427 97.7801L441.837 113.76C437.417 118.18 432.034 121.807 425.687 124.64C419.454 127.473 412.541 128.89 404.947 128.89C394.067 128.89 384.604 126.51 376.557 121.75C368.511 116.99 362.221 109.963 357.687 100.67C353.267 91.2634 351.057 79.9867 351.057 66.8401C351.057 54.0334 353.324 42.9834 357.857 33.69C362.504 24.3967 368.851 17.3701 376.897 12.61C385.057 7.73671 394.294 5.30005 404.607 5.30005Z" stroke="#F2F7FF" stroke-width="10" mask="url(#path-1-outside-1_316_6)"/>
<path d="M82.1 326L75.98 300.67H41.64L35.69 326H6.79001L42.32 208.19H76.15L111.68 326H82.1ZM46.4 280.44H71.22L58.81 228.42L46.4 280.44Z" stroke="#F2F7FF" stroke-width="10" mask="url(#path-1-outside-1_316_6)"/>
<path d="M200.937 208.19L198.217 229.61H169.147V326H141.267V229.61H110.837V208.19H200.937Z" stroke="#F2F7FF" stroke-width="10" mask="url(#path-1-outside-1_316_6)"/>
<path d="M248.543 208.19V326H220.663V208.19H248.543Z" stroke="#F2F7FF" stroke-width="10" mask="url(#path-1-outside-1_316_6)"/>
<path d="M326.568 205.3C343.341 205.3 356.375 210.683 365.668 221.45C375.075 232.217 379.778 247.403 379.778 267.01C379.778 279.817 377.625 290.867 373.318 300.16C369.125 309.453 363.005 316.593 354.958 321.58C347.025 326.453 337.561 328.89 326.568 328.89C315.575 328.89 306.111 326.453 298.178 321.58C290.245 316.707 284.125 309.68 279.818 300.5C275.625 291.207 273.528 280.043 273.528 267.01C273.528 254.317 275.625 243.323 279.818 234.03C284.125 224.737 290.245 217.653 298.178 212.78C306.111 207.793 315.575 205.3 326.568 205.3ZM326.568 225.7C318.521 225.7 312.515 228.987 308.548 235.56C304.695 242.02 302.768 252.503 302.768 267.01C302.768 281.517 304.751 292.057 308.718 298.63C312.685 305.203 318.635 308.49 326.568 308.49C334.728 308.49 340.735 305.26 344.588 298.8C348.555 292.227 350.538 281.63 350.538 267.01C350.538 252.39 348.555 241.85 344.588 235.39C340.621 228.93 334.615 225.7 326.568 225.7Z" stroke="#F2F7FF" stroke-width="10" mask="url(#path-1-outside-1_316_6)"/>
<path d="M495.787 326H460.257L426.257 234.71C427.39 243.663 428.24 251.597 428.807 258.51C429.487 265.31 429.827 273.413 429.827 282.82V326H405.007V208.19H439.687L474.537 299.65C472.044 284.123 470.797 269.503 470.797 255.79V208.19H495.787V326Z" stroke="#F2F7FF" stroke-width="10" mask="url(#path-1-outside-1_316_6)"/>
</g>
</svg>
