<svg width="405" height="531" viewBox="0 0 405 531" fill="none" xmlns="http://www.w3.org/2000/svg">
<g opacity="0.1">
<mask id="path-1-outside-1_43_4" maskUnits="userSpaceOnUse" x="0" y="0" width="405" height="531" fill="black">
<rect fill="white" width="405" height="531"/>
<path d="M82.69 5L79.8 24.89H38.32V53.11H74.53V72.66H38.32V102.75H82.69V122.81H10.44V5H82.69ZM162.822 59.23L196.822 122.81H166.392L146.162 77.93L126.272 122.81H96.6924L129.672 60.25L99.2424 5H129.502L146.502 42.74L164.352 5H193.932L162.822 59.23ZM253.782 5C269.308 5 281.378 8.23 289.992 14.69C298.605 21.15 302.912 30.7267 302.912 43.42C302.912 56.68 298.662 66.71 290.162 73.51C281.775 80.1967 270.498 83.54 256.332 83.54H243.582V122.81H215.702V5H253.782ZM253.952 63.48C260.525 63.48 265.512 61.95 268.912 58.89C272.425 55.7167 274.182 50.56 274.182 43.42C274.182 31.0667 267.268 24.89 253.442 24.89H243.582V63.48H253.952ZM398.385 5L395.495 24.89H354.015V53.11H390.225V72.66H354.015V102.75H398.385V122.81H326.135V5H398.385ZM49.2 277.76H38.32V322.81H10.44V205H49.03C65.1233 205 77.1933 207.947 85.24 213.84C93.4 219.733 97.48 228.743 97.48 240.87C97.48 248.463 95.6667 254.81 92.04 259.91C88.4133 264.897 82.69 269.147 74.87 272.66L104.79 322.81H73.34L49.2 277.76ZM38.32 258.55H50.05C56.2833 258.55 60.93 257.133 63.99 254.3C67.1633 251.467 68.75 246.99 68.75 240.87C68.75 235.203 67.05 231.067 63.65 228.46C60.3633 225.853 55.2633 224.55 48.35 224.55H38.32V258.55ZM151.742 205V322.81H123.862V205H151.742ZM254.417 205L251.527 224.89H210.047V253.11H246.257V272.66H210.047V302.75H254.417V322.81H182.167V205H254.417ZM195.937 194.46L186.247 183.41L210.387 161.48H226.707L250.677 183.41L241.157 194.46L218.547 180.18L195.937 194.46ZM370.929 322.81H335.399L301.399 231.52C302.532 240.473 303.382 248.407 303.949 255.32C304.629 262.12 304.969 270.223 304.969 279.63V322.81H280.149V205H314.829L349.679 296.46C347.186 280.933 345.939 266.313 345.939 252.6V205H370.929V322.81ZM58.55 402.11C65.9167 402.11 72.4333 403.187 78.1 405.34C83.88 407.493 89.32 410.723 94.42 415.03L81.16 430.84C77.6467 428.12 74.19 426.08 70.79 424.72C67.39 423.36 63.7633 422.68 59.91 422.68C51.9767 422.68 45.6867 426.023 41.04 432.71C36.5067 439.397 34.24 449.71 34.24 463.65C34.24 477.363 36.5067 487.563 41.04 494.25C45.6867 500.823 52.09 504.11 60.25 504.11C64.5567 504.11 68.4667 503.317 71.98 501.73C75.4933 500.03 79.29 497.65 83.37 494.59L95.78 510.57C91.36 514.99 85.9767 518.617 79.63 521.45C73.3967 524.283 66.4833 525.7 58.89 525.7C48.01 525.7 38.5467 523.32 30.5 518.56C22.4533 513.8 16.1633 506.773 11.63 497.48C7.21 488.073 5 476.797 5 463.65C5 450.843 7.26667 439.793 11.8 430.5C16.4467 421.207 22.7933 414.18 30.84 409.42C39 404.547 48.2367 402.11 58.55 402.11ZM144.603 405V522.81H116.723V405H144.603ZM237.078 522.81L230.958 497.48H196.618L190.668 522.81H161.768L197.298 405H231.128L266.658 522.81H237.078ZM201.378 477.25H226.198L213.788 425.23L201.378 477.25Z"/>
</mask>
<path d="M82.69 5L79.8 24.89H38.32V53.11H74.53V72.66H38.32V102.75H82.69V122.81H10.44V5H82.69ZM162.822 59.23L196.822 122.81H166.392L146.162 77.93L126.272 122.81H96.6924L129.672 60.25L99.2424 5H129.502L146.502 42.74L164.352 5H193.932L162.822 59.23ZM253.782 5C269.308 5 281.378 8.23 289.992 14.69C298.605 21.15 302.912 30.7267 302.912 43.42C302.912 56.68 298.662 66.71 290.162 73.51C281.775 80.1967 270.498 83.54 256.332 83.54H243.582V122.81H215.702V5H253.782ZM253.952 63.48C260.525 63.48 265.512 61.95 268.912 58.89C272.425 55.7167 274.182 50.56 274.182 43.42C274.182 31.0667 267.268 24.89 253.442 24.89H243.582V63.48H253.952ZM398.385 5L395.495 24.89H354.015V53.11H390.225V72.66H354.015V102.75H398.385V122.81H326.135V5H398.385ZM49.2 277.76H38.32V322.81H10.44V205H49.03C65.1233 205 77.1933 207.947 85.24 213.84C93.4 219.733 97.48 228.743 97.48 240.87C97.48 248.463 95.6667 254.81 92.04 259.91C88.4133 264.897 82.69 269.147 74.87 272.66L104.79 322.81H73.34L49.2 277.76ZM38.32 258.55H50.05C56.2833 258.55 60.93 257.133 63.99 254.3C67.1633 251.467 68.75 246.99 68.75 240.87C68.75 235.203 67.05 231.067 63.65 228.46C60.3633 225.853 55.2633 224.55 48.35 224.55H38.32V258.55ZM151.742 205V322.81H123.862V205H151.742ZM254.417 205L251.527 224.89H210.047V253.11H246.257V272.66H210.047V302.75H254.417V322.81H182.167V205H254.417ZM195.937 194.46L186.247 183.41L210.387 161.48H226.707L250.677 183.41L241.157 194.46L218.547 180.18L195.937 194.46ZM370.929 322.81H335.399L301.399 231.52C302.532 240.473 303.382 248.407 303.949 255.32C304.629 262.12 304.969 270.223 304.969 279.63V322.81H280.149V205H314.829L349.679 296.46C347.186 280.933 345.939 266.313 345.939 252.6V205H370.929V322.81ZM58.55 402.11C65.9167 402.11 72.4333 403.187 78.1 405.34C83.88 407.493 89.32 410.723 94.42 415.03L81.16 430.84C77.6467 428.12 74.19 426.08 70.79 424.72C67.39 423.36 63.7633 422.68 59.91 422.68C51.9767 422.68 45.6867 426.023 41.04 432.71C36.5067 439.397 34.24 449.71 34.24 463.65C34.24 477.363 36.5067 487.563 41.04 494.25C45.6867 500.823 52.09 504.11 60.25 504.11C64.5567 504.11 68.4667 503.317 71.98 501.73C75.4933 500.03 79.29 497.65 83.37 494.59L95.78 510.57C91.36 514.99 85.9767 518.617 79.63 521.45C73.3967 524.283 66.4833 525.7 58.89 525.7C48.01 525.7 38.5467 523.32 30.5 518.56C22.4533 513.8 16.1633 506.773 11.63 497.48C7.21 488.073 5 476.797 5 463.65C5 450.843 7.26667 439.793 11.8 430.5C16.4467 421.207 22.7933 414.18 30.84 409.42C39 404.547 48.2367 402.11 58.55 402.11ZM144.603 405V522.81H116.723V405H144.603ZM237.078 522.81L230.958 497.48H196.618L190.668 522.81H161.768L197.298 405H231.128L266.658 522.81H237.078ZM201.378 477.25H226.198L213.788 425.23L201.378 477.25Z" stroke="#F2F7FF" stroke-width="10" mask="url(#path-1-outside-1_43_4)"/>
</g>
</svg>
