<svg width="405" height="531" viewBox="0 0 405 531" fill="none" xmlns="http://www.w3.org/2000/svg">
<g opacity="0.15">
<mask id="path-1-outside-1_362_21" maskUnits="userSpaceOnUse" x="0.609985" y="0.189941" width="405" height="531" fill="black">
<rect fill="white" x="0.609985" y="0.189941" width="405" height="531"/>
<path d="M83.3 5.18994L80.41 25.0799H38.93V53.2999H75.14V72.8499H38.93V102.94H83.3V123H11.05V5.18994H83.3Z"/>
<path d="M163.432 59.4199L197.432 123H167.002L146.772 78.1199L126.882 123H97.3024L130.282 60.4399L99.8524 5.18994H130.112L147.112 42.9299L164.962 5.18994H194.542L163.432 59.4199Z"/>
<path d="M254.392 5.18994C269.918 5.18994 281.988 8.41994 290.602 14.8799C299.215 21.3399 303.522 30.9166 303.522 43.6099C303.522 56.8699 299.272 66.8999 290.772 73.6999C282.385 80.3866 271.108 83.7299 256.942 83.7299H244.192V123H216.312V5.18994H254.392ZM254.562 63.6699C261.135 63.6699 266.122 62.1399 269.522 59.0799C273.035 55.9066 274.792 50.7499 274.792 43.6099C274.792 31.2566 267.878 25.0799 254.052 25.0799H244.192V63.6699H254.562Z"/>
<path d="M398.995 5.18994L396.105 25.0799H354.625V53.2999H390.835V72.8499H354.625V102.94H398.995V123H326.745V5.18994H398.995Z"/>
<path d="M49.81 277.95H38.93V323H11.05V205.19H49.64C65.7333 205.19 77.8033 208.137 85.85 214.03C94.01 219.923 98.09 228.933 98.09 241.06C98.09 248.653 96.2767 255 92.65 260.1C89.0233 265.087 83.3 269.337 75.48 272.85L105.4 323H73.95L49.81 277.95ZM38.93 258.74H50.66C56.8933 258.74 61.54 257.323 64.6 254.49C67.7733 251.657 69.36 247.18 69.36 241.06C69.36 235.393 67.66 231.257 64.26 228.65C60.9733 226.043 55.8733 224.74 48.96 224.74H38.93V258.74Z"/>
<path d="M152.352 205.19V323H124.472V205.19H152.352Z"/>
<path d="M255.027 205.19L252.137 225.08H210.657V253.3H246.867V272.85H210.657V302.94H255.027V323H182.777V205.19H255.027Z"/>
<path d="M371.539 323H336.009L302.009 231.71C303.142 240.663 303.992 248.597 304.559 255.51C305.239 262.31 305.579 270.413 305.579 279.82V323H280.759V205.19H315.439L350.289 296.65C347.796 281.123 346.549 266.503 346.549 252.79V205.19H371.539V323Z"/>
<path d="M59.16 402.3C66.5267 402.3 73.0433 403.377 78.71 405.53C84.49 407.683 89.93 410.913 95.03 415.22L81.77 431.03C78.2567 428.31 74.8 426.27 71.4 424.91C68 423.55 64.3733 422.87 60.52 422.87C52.5867 422.87 46.2967 426.213 41.65 432.9C37.1167 439.587 34.85 449.9 34.85 463.84C34.85 477.553 37.1167 487.753 41.65 494.44C46.2967 501.013 52.7 504.3 60.86 504.3C65.1667 504.3 69.0767 503.507 72.59 501.92C76.1033 500.22 79.9 497.84 83.98 494.78L96.39 510.76C91.97 515.18 86.5867 518.807 80.24 521.64C74.0067 524.473 67.0933 525.89 59.5 525.89C48.62 525.89 39.1567 523.51 31.11 518.75C23.0633 513.99 16.7733 506.963 12.24 497.67C7.81999 488.263 5.60999 476.987 5.60999 463.84C5.60999 451.033 7.87665 439.983 12.41 430.69C17.0567 421.397 23.4033 414.37 31.45 409.61C39.61 404.737 48.8467 402.3 59.16 402.3Z"/>
<path d="M189.583 405.19L186.693 425.08H145.213V453.3H181.423V472.85H145.213V502.94H189.583V523H117.333V405.19H189.583Z"/>
</mask>
<path d="M83.3 5.18994L80.41 25.0799H38.93V53.2999H75.14V72.8499H38.93V102.94H83.3V123H11.05V5.18994H83.3Z" fill="#0E0E0E"/>
<path d="M163.432 59.4199L197.432 123H167.002L146.772 78.1199L126.882 123H97.3024L130.282 60.4399L99.8524 5.18994H130.112L147.112 42.9299L164.962 5.18994H194.542L163.432 59.4199Z" fill="#0E0E0E"/>
<path d="M254.392 5.18994C269.918 5.18994 281.988 8.41994 290.602 14.8799C299.215 21.3399 303.522 30.9166 303.522 43.6099C303.522 56.8699 299.272 66.8999 290.772 73.6999C282.385 80.3866 271.108 83.7299 256.942 83.7299H244.192V123H216.312V5.18994H254.392ZM254.562 63.6699C261.135 63.6699 266.122 62.1399 269.522 59.0799C273.035 55.9066 274.792 50.7499 274.792 43.6099C274.792 31.2566 267.878 25.0799 254.052 25.0799H244.192V63.6699H254.562Z" fill="#0E0E0E"/>
<path d="M398.995 5.18994L396.105 25.0799H354.625V53.2999H390.835V72.8499H354.625V102.94H398.995V123H326.745V5.18994H398.995Z" fill="#0E0E0E"/>
<path d="M49.81 277.95H38.93V323H11.05V205.19H49.64C65.7333 205.19 77.8033 208.137 85.85 214.03C94.01 219.923 98.09 228.933 98.09 241.06C98.09 248.653 96.2767 255 92.65 260.1C89.0233 265.087 83.3 269.337 75.48 272.85L105.4 323H73.95L49.81 277.95ZM38.93 258.74H50.66C56.8933 258.74 61.54 257.323 64.6 254.49C67.7733 251.657 69.36 247.18 69.36 241.06C69.36 235.393 67.66 231.257 64.26 228.65C60.9733 226.043 55.8733 224.74 48.96 224.74H38.93V258.74Z" fill="#0E0E0E"/>
<path d="M152.352 205.19V323H124.472V205.19H152.352Z" fill="#0E0E0E"/>
<path d="M255.027 205.19L252.137 225.08H210.657V253.3H246.867V272.85H210.657V302.94H255.027V323H182.777V205.19H255.027Z" fill="#0E0E0E"/>
<path d="M371.539 323H336.009L302.009 231.71C303.142 240.663 303.992 248.597 304.559 255.51C305.239 262.31 305.579 270.413 305.579 279.82V323H280.759V205.19H315.439L350.289 296.65C347.796 281.123 346.549 266.503 346.549 252.79V205.19H371.539V323Z" fill="#0E0E0E"/>
<path d="M59.16 402.3C66.5267 402.3 73.0433 403.377 78.71 405.53C84.49 407.683 89.93 410.913 95.03 415.22L81.77 431.03C78.2567 428.31 74.8 426.27 71.4 424.91C68 423.55 64.3733 422.87 60.52 422.87C52.5867 422.87 46.2967 426.213 41.65 432.9C37.1167 439.587 34.85 449.9 34.85 463.84C34.85 477.553 37.1167 487.753 41.65 494.44C46.2967 501.013 52.7 504.3 60.86 504.3C65.1667 504.3 69.0767 503.507 72.59 501.92C76.1033 500.22 79.9 497.84 83.98 494.78L96.39 510.76C91.97 515.18 86.5867 518.807 80.24 521.64C74.0067 524.473 67.0933 525.89 59.5 525.89C48.62 525.89 39.1567 523.51 31.11 518.75C23.0633 513.99 16.7733 506.963 12.24 497.67C7.81999 488.263 5.60999 476.987 5.60999 463.84C5.60999 451.033 7.87665 439.983 12.41 430.69C17.0567 421.397 23.4033 414.37 31.45 409.61C39.61 404.737 48.8467 402.3 59.16 402.3Z" fill="#0E0E0E"/>
<path d="M189.583 405.19L186.693 425.08H145.213V453.3H181.423V472.85H145.213V502.94H189.583V523H117.333V405.19H189.583Z" fill="#0E0E0E"/>
<path d="M83.3 5.18994L80.41 25.0799H38.93V53.2999H75.14V72.8499H38.93V102.94H83.3V123H11.05V5.18994H83.3Z" stroke="#F2F7FF" stroke-width="10" mask="url(#path-1-outside-1_362_21)"/>
<path d="M163.432 59.4199L197.432 123H167.002L146.772 78.1199L126.882 123H97.3024L130.282 60.4399L99.8524 5.18994H130.112L147.112 42.9299L164.962 5.18994H194.542L163.432 59.4199Z" stroke="#F2F7FF" stroke-width="10" mask="url(#path-1-outside-1_362_21)"/>
<path d="M254.392 5.18994C269.918 5.18994 281.988 8.41994 290.602 14.8799C299.215 21.3399 303.522 30.9166 303.522 43.6099C303.522 56.8699 299.272 66.8999 290.772 73.6999C282.385 80.3866 271.108 83.7299 256.942 83.7299H244.192V123H216.312V5.18994H254.392ZM254.562 63.6699C261.135 63.6699 266.122 62.1399 269.522 59.0799C273.035 55.9066 274.792 50.7499 274.792 43.6099C274.792 31.2566 267.878 25.0799 254.052 25.0799H244.192V63.6699H254.562Z" stroke="#F2F7FF" stroke-width="10" mask="url(#path-1-outside-1_362_21)"/>
<path d="M398.995 5.18994L396.105 25.0799H354.625V53.2999H390.835V72.8499H354.625V102.94H398.995V123H326.745V5.18994H398.995Z" stroke="#F2F7FF" stroke-width="10" mask="url(#path-1-outside-1_362_21)"/>
<path d="M49.81 277.95H38.93V323H11.05V205.19H49.64C65.7333 205.19 77.8033 208.137 85.85 214.03C94.01 219.923 98.09 228.933 98.09 241.06C98.09 248.653 96.2767 255 92.65 260.1C89.0233 265.087 83.3 269.337 75.48 272.85L105.4 323H73.95L49.81 277.95ZM38.93 258.74H50.66C56.8933 258.74 61.54 257.323 64.6 254.49C67.7733 251.657 69.36 247.18 69.36 241.06C69.36 235.393 67.66 231.257 64.26 228.65C60.9733 226.043 55.8733 224.74 48.96 224.74H38.93V258.74Z" stroke="#F2F7FF" stroke-width="10" mask="url(#path-1-outside-1_362_21)"/>
<path d="M152.352 205.19V323H124.472V205.19H152.352Z" stroke="#F2F7FF" stroke-width="10" mask="url(#path-1-outside-1_362_21)"/>
<path d="M255.027 205.19L252.137 225.08H210.657V253.3H246.867V272.85H210.657V302.94H255.027V323H182.777V205.19H255.027Z" stroke="#F2F7FF" stroke-width="10" mask="url(#path-1-outside-1_362_21)"/>
<path d="M371.539 323H336.009L302.009 231.71C303.142 240.663 303.992 248.597 304.559 255.51C305.239 262.31 305.579 270.413 305.579 279.82V323H280.759V205.19H315.439L350.289 296.65C347.796 281.123 346.549 266.503 346.549 252.79V205.19H371.539V323Z" stroke="#F2F7FF" stroke-width="10" mask="url(#path-1-outside-1_362_21)"/>
<path d="M59.16 402.3C66.5267 402.3 73.0433 403.377 78.71 405.53C84.49 407.683 89.93 410.913 95.03 415.22L81.77 431.03C78.2567 428.31 74.8 426.27 71.4 424.91C68 423.55 64.3733 422.87 60.52 422.87C52.5867 422.87 46.2967 426.213 41.65 432.9C37.1167 439.587 34.85 449.9 34.85 463.84C34.85 477.553 37.1167 487.753 41.65 494.44C46.2967 501.013 52.7 504.3 60.86 504.3C65.1667 504.3 69.0767 503.507 72.59 501.92C76.1033 500.22 79.9 497.84 83.98 494.78L96.39 510.76C91.97 515.18 86.5867 518.807 80.24 521.64C74.0067 524.473 67.0933 525.89 59.5 525.89C48.62 525.89 39.1567 523.51 31.11 518.75C23.0633 513.99 16.7733 506.963 12.24 497.67C7.81999 488.263 5.60999 476.987 5.60999 463.84C5.60999 451.033 7.87665 439.983 12.41 430.69C17.0567 421.397 23.4033 414.37 31.45 409.61C39.61 404.737 48.8467 402.3 59.16 402.3Z" stroke="#F2F7FF" stroke-width="10" mask="url(#path-1-outside-1_362_21)"/>
<path d="M189.583 405.19L186.693 425.08H145.213V453.3H181.423V472.85H145.213V502.94H189.583V523H117.333V405.19H189.583Z" stroke="#F2F7FF" stroke-width="10" mask="url(#path-1-outside-1_362_21)"/>
</g>
</svg>
