<svg width="35" height="50" viewBox="0 0 35 50" fill="none" xmlns="http://www.w3.org/2000/svg">
<path d="M9.04255 0C4.06119 0 0 4.06119 0 9.04255C0 12.5535 2.07439 15.5243 5.00956 17.0213C2.07439 18.5182 0 21.4891 0 25C0 28.5109 2.07439 31.4818 5.00956 32.9787C2.07439 34.4757 0 37.4465 0 40.9574C0 45.9388 4.06119 50 9.04255 50C14.0239 50 18.0851 45.9388 18.0851 40.9574V32.9787V29.4215C19.5121 32.1295 22.2682 34.0426 25.5319 34.0426C30.2196 34.0426 34.0426 30.2196 34.0426 25.5319C34.0426 21.679 31.4108 18.5412 27.8881 17.4992C31.44 16.2784 34.0426 13.0002 34.0426 9.04255C34.0426 4.06119 29.9814 0 25 0H17.0213H9.04255ZM9.04255 2.12766H15.9574V15.9574H9.04255C5.21115 15.9574 2.12766 12.874 2.12766 9.04255C2.12766 5.21115 5.21115 2.12766 9.04255 2.12766ZM18.0851 2.12766H25C28.8314 2.12766 31.9149 5.21115 31.9149 9.04255C31.9149 12.874 28.8314 15.9574 25 15.9574H18.0851V2.12766ZM9.04255 18.0851H15.9574V31.9149H9.04255C5.21115 31.9149 2.12766 28.8314 2.12766 25C2.12766 21.1686 5.21115 18.0851 9.04255 18.0851ZM18.0851 18.0851H21.6423C20.1158 18.8895 18.8895 20.1158 18.0851 21.6423V18.0851ZM25.5319 19.1489C29.0697 19.1489 31.9149 21.9941 31.9149 25.5319C31.9149 29.0697 29.0697 31.9149 25.5319 31.9149C21.9941 31.9149 19.1489 29.0697 19.1489 25.5319C19.1489 21.9941 21.9941 19.1489 25.5319 19.1489ZM9.04255 34.0426H15.9574V40.9574C15.9574 44.7889 12.874 47.8723 9.04255 47.8723C5.21115 47.8723 2.12766 44.7889 2.12766 40.9574C2.12766 37.126 5.21115 34.0426 9.04255 34.0426Z" fill="#5793ED"/>
</svg>
