<svg width="737" height="256" viewBox="0 0 737 256" fill="none" xmlns="http://www.w3.org/2000/svg">
<path d="M7.05434 83.0793C7.27033 80.8808 9.22111 79.3312 11.4115 79.6183L717.273 172.129C719.463 172.416 721.064 174.431 720.848 176.629L714.185 244.451C713.969 246.65 712.018 248.199 709.827 247.912L3.96609 155.402C1.77569 155.115 0.175112 153.1 0.39111 150.901L7.05434 83.0793Z" fill="#0A0077"/>
<path d="M13.7942 3.98078C14.0106 1.78226 15.9618 0.232313 18.1523 0.51886L726.025 93.1193C728.215 93.4059 729.816 95.4204 729.599 97.6189L722.924 165.44C722.707 167.638 720.756 169.188 718.566 168.902L10.693 76.3013C8.50255 76.0147 6.90224 74.0002 7.11864 71.8017L13.7942 3.98078Z" fill="#201CC8"/>
<path d="M50.6074 20.94C58.6574 20.94 65.0824 22.765 69.8824 26.415C74.7324 30.065 77.1574 36.79 77.1574 46.59C77.1574 56.19 74.7824 62.965 70.0324 66.915C65.2824 70.815 59.2574 72.765 51.9574 72.765H37.8574V20.94H50.6074ZM47.7574 28.365V65.34H52.6324C57.0324 65.34 60.4824 63.99 62.9824 61.29C65.4824 58.54 66.7324 53.64 66.7324 46.59C66.7324 41.69 66.0824 37.915 64.7824 35.265C63.5324 32.565 61.8574 30.74 59.7574 29.79C57.7074 28.84 55.2324 28.365 52.3324 28.365H47.7574Z" fill="#F2F7FF"/>
<path d="M118.74 51.99C118.74 52.49 118.665 53.79 118.515 55.89H93.6152C93.9152 59.74 94.9152 62.49 96.6152 64.14C98.3152 65.79 100.565 66.615 103.365 66.615C105.115 66.615 106.765 66.34 108.315 65.79C109.865 65.19 111.515 64.29 113.265 63.09L117.24 68.565C112.84 72.115 107.94 73.89 102.54 73.89C96.4902 73.89 91.8152 72.04 88.5152 68.34C85.2652 64.64 83.6402 59.59 83.6402 53.19C83.6402 49.14 84.3402 45.515 85.7402 42.315C87.1402 39.065 89.1652 36.54 91.8152 34.74C94.4652 32.89 97.6152 31.965 101.265 31.965C106.815 31.965 111.115 33.74 114.165 37.29C117.215 40.79 118.74 45.69 118.74 51.99ZM109.215 49.215C109.215 42.265 106.64 38.79 101.49 38.79C99.1402 38.79 97.2902 39.665 95.9402 41.415C94.6402 43.115 93.8652 45.865 93.6152 49.665H109.215V49.215Z" fill="#F2F7FF"/>
<path d="M139.877 31.965C145.227 31.965 149.927 33.54 153.977 36.69L150.227 42.315C146.827 40.165 143.502 39.09 140.252 39.09C138.352 39.09 136.877 39.465 135.827 40.215C134.777 40.915 134.252 41.865 134.252 43.065C134.252 43.965 134.477 44.715 134.927 45.315C135.377 45.915 136.177 46.49 137.327 47.04C138.527 47.54 140.277 48.115 142.577 48.765C146.877 49.915 150.052 51.44 152.102 53.34C154.202 55.24 155.252 57.89 155.252 61.29C155.252 65.24 153.652 68.34 150.452 70.59C147.252 72.79 143.277 73.89 138.527 73.89C135.277 73.89 132.302 73.39 129.602 72.39C126.952 71.39 124.652 70.015 122.702 68.265L127.502 62.865C130.952 65.465 134.552 66.765 138.302 66.765C140.452 66.765 142.152 66.34 143.402 65.49C144.702 64.64 145.352 63.465 145.352 61.965C145.352 60.815 145.102 59.915 144.602 59.265C144.152 58.565 143.302 57.965 142.052 57.465C140.852 56.915 138.952 56.265 136.352 55.515C132.302 54.415 129.327 52.89 127.427 50.94C125.527 48.94 124.577 46.465 124.577 43.515C124.577 41.315 125.202 39.34 126.452 37.59C127.752 35.84 129.552 34.465 131.852 33.465C134.202 32.465 136.877 31.965 139.877 31.965Z" fill="#F2F7FF"/>
<path d="M195.571 51.99C195.571 52.49 195.496 53.79 195.346 55.89H170.446C170.746 59.74 171.746 62.49 173.446 64.14C175.146 65.79 177.396 66.615 180.196 66.615C181.946 66.615 183.596 66.34 185.146 65.79C186.696 65.19 188.346 64.29 190.096 63.09L194.071 68.565C189.671 72.115 184.771 73.89 179.371 73.89C173.321 73.89 168.646 72.04 165.346 68.34C162.096 64.64 160.471 59.59 160.471 53.19C160.471 49.14 161.171 45.515 162.571 42.315C163.971 39.065 165.996 36.54 168.646 34.74C171.296 32.89 174.446 31.965 178.096 31.965C183.646 31.965 187.946 33.74 190.996 37.29C194.046 40.79 195.571 45.69 195.571 51.99ZM186.046 49.215C186.046 42.265 183.471 38.79 178.321 38.79C175.971 38.79 174.121 39.665 172.771 41.415C171.471 43.115 170.696 45.865 170.446 49.665H186.046V49.215Z" fill="#F2F7FF"/>
<path d="M225.333 31.965C228.883 31.965 231.633 33.04 233.583 35.19C235.583 37.29 236.583 40.24 236.583 44.04V72.765H226.983V45.54C226.983 43.19 226.558 41.54 225.708 40.59C224.908 39.64 223.708 39.165 222.108 39.165C220.458 39.165 218.958 39.69 217.608 40.74C216.308 41.74 215.033 43.215 213.783 45.165V72.765H204.183V33.09H212.508L213.258 38.265C216.508 34.065 220.533 31.965 225.333 31.965Z" fill="#F2F7FF"/>
<path d="M279.198 33.09L266.298 72.765H254.823L241.698 33.09H252.123L260.598 65.04L269.298 33.09H279.198Z" fill="#F2F7FF"/>
<path d="M300.877 31.965C306.727 31.965 311.277 33.84 314.527 37.59C317.827 41.29 319.477 46.39 319.477 52.89C319.477 57.04 318.727 60.715 317.227 63.915C315.727 67.065 313.577 69.515 310.777 71.265C307.977 73.015 304.652 73.89 300.802 73.89C294.952 73.89 290.377 72.04 287.077 68.34C283.777 64.59 282.127 59.44 282.127 52.89C282.127 48.74 282.877 45.09 284.377 41.94C285.877 38.79 288.027 36.34 290.827 34.59C293.677 32.84 297.027 31.965 300.877 31.965ZM300.877 39.24C295.127 39.24 292.252 43.79 292.252 52.89C292.252 57.59 292.952 61.065 294.352 63.315C295.802 65.515 297.952 66.615 300.802 66.615C303.652 66.615 305.777 65.49 307.177 63.24C308.627 60.99 309.352 57.54 309.352 52.89C309.352 48.24 308.627 44.815 307.177 42.615C305.777 40.365 303.677 39.24 300.877 39.24Z" fill="#F2F7FF"/>
<path d="M337.85 73.89C334.8 73.89 332.4 73.015 330.65 71.265C328.95 69.465 328.1 66.94 328.1 63.69V17.19L337.7 16.14V63.39C337.7 65.24 338.45 66.165 339.95 66.165C340.7 66.165 341.45 66.04 342.2 65.79L344.225 72.54C342.225 73.44 340.1 73.89 337.85 73.89Z" fill="#F2F7FF"/>
<path d="M381.737 33.09L368.837 72.765H357.362L344.237 33.09H354.662L363.137 65.04L371.837 33.09H381.737Z" fill="#F2F7FF"/>
<path d="M419.766 51.99C419.766 52.49 419.691 53.79 419.541 55.89H394.641C394.941 59.74 395.941 62.49 397.641 64.14C399.341 65.79 401.591 66.615 404.391 66.615C406.141 66.615 407.791 66.34 409.341 65.79C410.891 65.19 412.541 64.29 414.291 63.09L418.266 68.565C413.866 72.115 408.966 73.89 403.566 73.89C397.516 73.89 392.841 72.04 389.541 68.34C386.291 64.64 384.666 59.59 384.666 53.19C384.666 49.14 385.366 45.515 386.766 42.315C388.166 39.065 390.191 36.54 392.841 34.74C395.491 32.89 398.641 31.965 402.291 31.965C407.841 31.965 412.141 33.74 415.191 37.29C418.241 40.79 419.766 45.69 419.766 51.99ZM410.241 49.215C410.241 42.265 407.666 38.79 402.516 38.79C400.166 38.79 398.316 39.665 396.966 41.415C395.666 43.115 394.891 45.865 394.641 49.665H410.241V49.215Z" fill="#F2F7FF"/>
<path d="M461.753 17.19V72.765H453.278L452.603 67.74C451.353 69.64 449.753 71.14 447.803 72.24C445.903 73.34 443.728 73.89 441.278 73.89C436.428 73.89 432.703 72.015 430.103 68.265C427.503 64.515 426.203 59.415 426.203 52.965C426.203 48.915 426.853 45.315 428.153 42.165C429.453 38.965 431.303 36.465 433.703 34.665C436.153 32.865 438.978 31.965 442.178 31.965C445.978 31.965 449.303 33.39 452.153 36.24V16.14L461.753 17.19ZM443.978 66.615C445.678 66.615 447.178 66.215 448.478 65.415C449.778 64.565 451.003 63.265 452.153 61.515V43.365C451.003 41.965 449.828 40.915 448.628 40.215C447.478 39.515 446.128 39.165 444.578 39.165C442.028 39.165 440.003 40.315 438.503 42.615C437.053 44.865 436.328 48.29 436.328 52.89C436.328 57.79 436.978 61.315 438.278 63.465C439.578 65.565 441.478 66.615 443.978 66.615Z" fill="#F2F7FF"/>
<path d="M489.475 31.965C495.325 31.965 499.875 33.84 503.125 37.59C506.425 41.29 508.075 46.39 508.075 52.89C508.075 57.04 507.325 60.715 505.825 63.915C504.325 67.065 502.175 69.515 499.375 71.265C496.575 73.015 493.25 73.89 489.4 73.89C483.55 73.89 478.975 72.04 475.675 68.34C472.375 64.59 470.725 59.44 470.725 52.89C470.725 48.74 471.475 45.09 472.975 41.94C474.475 38.79 476.625 36.34 479.425 34.59C482.275 32.84 485.625 31.965 489.475 31.965ZM489.475 39.24C483.725 39.24 480.85 43.79 480.85 52.89C480.85 57.59 481.55 61.065 482.95 63.315C484.4 65.515 486.55 66.615 489.4 66.615C492.25 66.615 494.375 65.49 495.775 63.24C497.225 60.99 497.95 57.54 497.95 52.89C497.95 48.24 497.225 44.815 495.775 42.615C494.375 40.365 492.275 39.24 489.475 39.24Z" fill="#F2F7FF"/>
<path d="M536.649 32.04C538.099 32.04 539.424 32.215 540.624 32.565L538.974 41.865C537.774 41.565 536.599 41.415 535.449 41.415C533.099 41.415 531.249 42.265 529.899 43.965C528.549 45.615 527.474 48.165 526.674 51.615V72.765H517.074V33.09H525.399L526.299 40.89C527.249 38.04 528.624 35.865 530.424 34.365C532.224 32.815 534.299 32.04 536.649 32.04Z" fill="#F2F7FF"/>
<path d="M565.641 72.765V20.94H594.966L593.916 28.29H575.541V43.815H591.516V51.165H575.541V72.765H565.641Z" fill="#F2F7FF"/>
<path d="M618.973 32.04C620.423 32.04 621.748 32.215 622.948 32.565L621.298 41.865C620.098 41.565 618.923 41.415 617.773 41.415C615.423 41.415 613.573 42.265 612.223 43.965C610.873 45.615 609.798 48.165 608.998 51.615V72.765H599.398V33.09H607.723L608.623 40.89C609.573 38.04 610.948 35.865 612.748 34.365C614.548 32.815 616.623 32.04 618.973 32.04Z" fill="#F2F7FF"/>
<path d="M642.844 31.965C648.694 31.965 653.244 33.84 656.494 37.59C659.794 41.29 661.444 46.39 661.444 52.89C661.444 57.04 660.694 60.715 659.194 63.915C657.694 67.065 655.544 69.515 652.744 71.265C649.944 73.015 646.619 73.89 642.769 73.89C636.919 73.89 632.344 72.04 629.044 68.34C625.744 64.59 624.094 59.44 624.094 52.89C624.094 48.74 624.844 45.09 626.344 41.94C627.844 38.79 629.994 36.34 632.794 34.59C635.644 32.84 638.994 31.965 642.844 31.965ZM642.844 39.24C637.094 39.24 634.219 43.79 634.219 52.89C634.219 57.59 634.919 61.065 636.319 63.315C637.769 65.515 639.919 66.615 642.769 66.615C645.619 66.615 647.744 65.49 649.144 63.24C650.594 60.99 651.319 57.54 651.319 52.89C651.319 48.24 650.594 44.815 649.144 42.615C647.744 40.365 645.644 39.24 642.844 39.24Z" fill="#F2F7FF"/>
<path d="M691.593 31.965C695.143 31.965 697.893 33.04 699.843 35.19C701.843 37.29 702.843 40.24 702.843 44.04V72.765H693.243V45.54C693.243 43.19 692.818 41.54 691.968 40.59C691.168 39.64 689.968 39.165 688.368 39.165C686.718 39.165 685.218 39.69 683.868 40.74C682.568 41.74 681.293 43.215 680.043 45.165V72.765H670.443V33.09H678.768L679.518 38.265C682.768 34.065 686.793 31.965 691.593 31.965Z" fill="#F2F7FF"/>
<path d="M736.747 70.89C735.347 71.89 733.772 72.64 732.022 73.14C730.322 73.64 728.572 73.89 726.772 73.89C722.872 73.84 719.897 72.74 717.847 70.59C715.847 68.39 714.847 65.165 714.847 60.915V39.99H708.622V33.09H714.847V24.315L724.447 23.19V33.09H733.672L732.697 39.99H724.447V60.69C724.447 62.64 724.772 64.04 725.422 64.89C726.122 65.74 727.197 66.165 728.647 66.165C730.097 66.165 731.672 65.69 733.372 64.74L736.747 70.89Z" fill="#F2F7FF"/>
<path d="M67.9324 103.94L66.8824 111.29H47.7574V125.765H64.4074V133.115H47.7574V148.34H68.2324V155.765H37.8574V103.94H67.9324Z" fill="#F2F7FF"/>
<path d="M97.7455 114.965C101.295 114.965 104.045 116.04 105.995 118.19C107.995 120.29 108.995 123.24 108.995 127.04V155.765H99.3955V128.54C99.3955 126.19 98.9705 124.54 98.1205 123.59C97.3205 122.64 96.1205 122.165 94.5205 122.165C92.8705 122.165 91.3705 122.69 90.0205 123.74C88.7205 124.74 87.4455 126.215 86.1955 128.165V155.765H76.5955V116.09H84.9205L85.6705 121.265C88.9205 117.065 92.9455 114.965 97.7455 114.965Z" fill="#F2F7FF"/>
<path d="M153.55 100.19V155.765H145.075L144.4 150.74C143.15 152.64 141.55 154.14 139.6 155.24C137.7 156.34 135.525 156.89 133.075 156.89C128.225 156.89 124.5 155.015 121.9 151.265C119.3 147.515 118 142.415 118 135.965C118 131.915 118.65 128.315 119.95 125.165C121.25 121.965 123.1 119.465 125.5 117.665C127.95 115.865 130.775 114.965 133.975 114.965C137.775 114.965 141.1 116.39 143.95 119.24V99.14L153.55 100.19ZM135.775 149.615C137.475 149.615 138.975 149.215 140.275 148.415C141.575 147.565 142.8 146.265 143.95 144.515V126.365C142.8 124.965 141.625 123.915 140.425 123.215C139.275 122.515 137.925 122.165 136.375 122.165C133.825 122.165 131.8 123.315 130.3 125.615C128.85 127.865 128.125 131.29 128.125 135.89C128.125 140.79 128.775 144.315 130.075 146.465C131.375 148.565 133.275 149.615 135.775 149.615Z" fill="#F2F7FF"/>
<path d="M201.147 102.815C204.147 102.815 206.772 103.315 209.022 104.315C211.322 105.315 213.072 106.715 214.272 108.515C215.522 110.265 216.147 112.265 216.147 114.515C216.147 117.465 215.247 120.04 213.447 122.24C211.697 124.39 209.197 126.49 205.947 128.54L217.497 139.415C219.147 135.815 220.472 131.915 221.472 127.715L229.797 130.19C227.947 135.79 225.672 140.565 222.972 144.515L231.747 152.465L224.022 156.89L217.497 150.59C212.997 154.79 207.497 156.89 200.997 156.89C197.497 156.89 194.397 156.315 191.697 155.165C189.047 153.965 186.972 152.29 185.472 150.14C183.972 147.94 183.222 145.415 183.222 142.565C183.222 139.515 184.072 136.865 185.772 134.615C187.472 132.315 190.072 130.04 193.572 127.79C190.972 125.24 189.097 123.04 187.947 121.19C186.847 119.34 186.297 117.24 186.297 114.89C186.297 112.69 186.847 110.69 187.947 108.89C189.097 107.04 190.772 105.565 192.972 104.465C195.222 103.365 197.947 102.815 201.147 102.815ZM201.222 109.34C199.472 109.34 198.097 109.84 197.097 110.84C196.097 111.84 195.597 113.19 195.597 114.89C195.597 116.39 195.972 117.765 196.722 119.015C197.522 120.215 198.822 121.69 200.622 123.44C202.722 122.09 204.297 120.765 205.347 119.465C206.397 118.115 206.922 116.59 206.922 114.89C206.922 113.19 206.397 111.84 205.347 110.84C204.347 109.84 202.972 109.34 201.222 109.34ZM199.047 132.965C197.047 134.315 195.572 135.715 194.622 137.165C193.722 138.615 193.272 140.265 193.272 142.115C193.272 144.465 194.097 146.34 195.747 147.74C197.447 149.09 199.697 149.765 202.497 149.765C204.447 149.765 206.197 149.44 207.747 148.79C209.347 148.09 210.897 147.09 212.397 145.79L199.047 132.965Z" fill="#F2F7FF"/>
<path d="M296.629 138.815C296.629 142.315 295.879 145.44 294.379 148.19C292.929 150.89 290.729 153.015 287.779 154.565C284.879 156.115 281.379 156.89 277.279 156.89C271.079 156.89 266.329 155.265 263.029 152.015C259.729 148.715 258.079 144.315 258.079 138.815V103.94H267.979V138.29C267.979 141.94 268.729 144.665 270.229 146.465C271.779 148.265 274.129 149.165 277.279 149.165C280.479 149.165 282.829 148.265 284.329 146.465C285.879 144.665 286.654 141.94 286.654 138.29V103.94H296.629V138.815Z" fill="#F2F7FF"/>
<path d="M317.948 103.94V155.765H308.048V103.94H317.948Z" fill="#F2F7FF"/>
<path d="M348.169 94.865L356.419 96.74L338.944 163.865L330.619 161.915L348.169 94.865Z" fill="#F2F7FF"/>
<path d="M406.859 138.815C406.859 142.315 406.109 145.44 404.609 148.19C403.159 150.89 400.959 153.015 398.009 154.565C395.109 156.115 391.609 156.89 387.509 156.89C381.309 156.89 376.559 155.265 373.259 152.015C369.959 148.715 368.309 144.315 368.309 138.815V103.94H378.209V138.29C378.209 141.94 378.959 144.665 380.459 146.465C382.009 148.265 384.359 149.165 387.509 149.165C390.709 149.165 393.059 148.265 394.559 146.465C396.109 144.665 396.884 141.94 396.884 138.29V103.94H406.859V138.815Z" fill="#F2F7FF"/>
<path d="M438.613 127.79L453.988 155.765H442.963L432.613 134.54L422.338 155.765H411.763L426.763 128.165L412.963 103.94H423.988L432.763 121.865L441.913 103.94H452.488L438.613 127.79Z" fill="#F2F7FF"/>
<path d="M50.6074 186.94C58.6574 186.94 65.0824 188.765 69.8824 192.415C74.7324 196.065 77.1574 202.79 77.1574 212.59C77.1574 222.19 74.7824 228.965 70.0324 232.915C65.2824 236.815 59.2574 238.765 51.9574 238.765H37.8574V186.94H50.6074ZM47.7574 194.365V231.34H52.6324C57.0324 231.34 60.4824 229.99 62.9824 227.29C65.4824 224.54 66.7324 219.64 66.7324 212.59C66.7324 207.69 66.0824 203.915 64.7824 201.265C63.5324 198.565 61.8574 196.74 59.7574 195.79C57.7074 194.84 55.2324 194.365 52.3324 194.365H47.7574Z" fill="#F2F7FF"/>
<path d="M118.74 217.99C118.74 218.49 118.665 219.79 118.515 221.89H93.6152C93.9152 225.74 94.9152 228.49 96.6152 230.14C98.3152 231.79 100.565 232.615 103.365 232.615C105.115 232.615 106.765 232.34 108.315 231.79C109.865 231.19 111.515 230.29 113.265 229.09L117.24 234.565C112.84 238.115 107.94 239.89 102.54 239.89C96.4902 239.89 91.8152 238.04 88.5152 234.34C85.2652 230.64 83.6402 225.59 83.6402 219.19C83.6402 215.14 84.3402 211.515 85.7402 208.315C87.1402 205.065 89.1652 202.54 91.8152 200.74C94.4652 198.89 97.6152 197.965 101.265 197.965C106.815 197.965 111.115 199.74 114.165 203.29C117.215 206.79 118.74 211.69 118.74 217.99ZM109.215 215.215C109.215 208.265 106.64 204.79 101.49 204.79C99.1402 204.79 97.2902 205.665 95.9402 207.415C94.6402 209.115 93.8652 211.865 93.6152 215.665H109.215V215.215Z" fill="#F2F7FF"/>
<path d="M139.877 197.965C145.227 197.965 149.927 199.54 153.977 202.69L150.227 208.315C146.827 206.165 143.502 205.09 140.252 205.09C138.352 205.09 136.877 205.465 135.827 206.215C134.777 206.915 134.252 207.865 134.252 209.065C134.252 209.965 134.477 210.715 134.927 211.315C135.377 211.915 136.177 212.49 137.327 213.04C138.527 213.54 140.277 214.115 142.577 214.765C146.877 215.915 150.052 217.44 152.102 219.34C154.202 221.24 155.252 223.89 155.252 227.29C155.252 231.24 153.652 234.34 150.452 236.59C147.252 238.79 143.277 239.89 138.527 239.89C135.277 239.89 132.302 239.39 129.602 238.39C126.952 237.39 124.652 236.015 122.702 234.265L127.502 228.865C130.952 231.465 134.552 232.765 138.302 232.765C140.452 232.765 142.152 232.34 143.402 231.49C144.702 230.64 145.352 229.465 145.352 227.965C145.352 226.815 145.102 225.915 144.602 225.265C144.152 224.565 143.302 223.965 142.052 223.465C140.852 222.915 138.952 222.265 136.352 221.515C132.302 220.415 129.327 218.89 127.427 216.94C125.527 214.94 124.577 212.465 124.577 209.515C124.577 207.315 125.202 205.34 126.452 203.59C127.752 201.84 129.552 200.465 131.852 199.465C134.202 198.465 136.877 197.965 139.877 197.965Z" fill="#F2F7FF"/>
<path d="M172.621 199.09V238.765H163.021V199.09H172.621ZM167.746 178.99C169.546 178.99 170.996 179.565 172.096 180.715C173.246 181.815 173.821 183.19 173.821 184.84C173.821 186.49 173.246 187.865 172.096 188.965C170.996 190.065 169.546 190.615 167.746 190.615C165.996 190.615 164.546 190.065 163.396 188.965C162.296 187.865 161.746 186.49 161.746 184.84C161.746 183.19 162.296 181.815 163.396 180.715C164.546 179.565 165.996 178.99 167.746 178.99Z" fill="#F2F7FF"/>
<path d="M218.688 201.19C216.138 202.09 212.313 202.54 207.213 202.54C209.663 203.64 211.463 205.015 212.613 206.665C213.813 208.265 214.413 210.29 214.413 212.74C214.413 215.34 213.763 217.64 212.463 219.64C211.213 221.64 209.363 223.215 206.913 224.365C204.513 225.515 201.688 226.09 198.438 226.09C196.638 226.09 195.063 225.89 193.713 225.49C192.613 226.24 192.063 227.215 192.063 228.415C192.063 230.265 193.663 231.19 196.863 231.19H202.938C205.838 231.19 208.363 231.665 210.513 232.615C212.713 233.565 214.413 234.915 215.613 236.665C216.813 238.365 217.413 240.29 217.413 242.44C217.413 246.44 215.713 249.54 212.313 251.74C208.913 253.99 204.013 255.115 197.613 255.115C193.013 255.115 189.388 254.64 186.738 253.69C184.138 252.74 182.288 251.365 181.188 249.565C180.088 247.765 179.538 245.465 179.538 242.665H188.163C188.163 244.065 188.413 245.165 188.913 245.965C189.463 246.765 190.413 247.365 191.763 247.765C193.163 248.165 195.163 248.365 197.763 248.365C201.413 248.365 203.988 247.915 205.488 247.015C206.988 246.115 207.738 244.815 207.738 243.115C207.738 241.615 207.163 240.44 206.013 239.59C204.863 238.79 203.188 238.39 200.988 238.39H194.988C191.238 238.39 188.413 237.665 186.513 236.215C184.613 234.765 183.663 232.94 183.663 230.74C183.663 229.34 184.063 227.99 184.863 226.69C185.713 225.39 186.863 224.29 188.313 223.39C185.913 222.14 184.138 220.615 182.988 218.815C181.888 216.965 181.338 214.765 181.338 212.215C181.338 209.365 182.038 206.865 183.438 204.715C184.838 202.565 186.763 200.915 189.213 199.765C191.713 198.565 194.563 197.965 197.763 197.965C201.963 198.065 205.338 197.765 207.888 197.065C210.488 196.315 213.288 195.14 216.288 193.54L218.688 201.19ZM197.913 204.49C195.763 204.49 194.063 205.19 192.813 206.59C191.613 207.94 191.013 209.765 191.013 212.065C191.013 214.465 191.638 216.365 192.888 217.765C194.138 219.165 195.863 219.865 198.063 219.865C200.363 219.865 202.113 219.19 203.313 217.84C204.513 216.44 205.113 214.49 205.113 211.99C205.113 206.99 202.713 204.49 197.913 204.49Z" fill="#F2F7FF"/>
<path d="M245.621 197.965C249.171 197.965 251.921 199.04 253.871 201.19C255.871 203.29 256.871 206.24 256.871 210.04V238.765H247.271V211.54C247.271 209.19 246.846 207.54 245.996 206.59C245.196 205.64 243.996 205.165 242.396 205.165C240.746 205.165 239.246 205.69 237.896 206.74C236.596 207.74 235.321 209.215 234.071 211.165V238.765H224.471V199.09H232.796L233.546 204.265C236.796 200.065 240.821 197.965 245.621 197.965Z" fill="#F2F7FF"/>
<path d="M300.601 217.99C300.601 218.49 300.526 219.79 300.376 221.89H275.476C275.776 225.74 276.776 228.49 278.476 230.14C280.176 231.79 282.426 232.615 285.226 232.615C286.976 232.615 288.626 232.34 290.176 231.79C291.726 231.19 293.376 230.29 295.126 229.09L299.101 234.565C294.701 238.115 289.801 239.89 284.401 239.89C278.351 239.89 273.676 238.04 270.376 234.34C267.126 230.64 265.501 225.59 265.501 219.19C265.501 215.14 266.201 211.515 267.601 208.315C269.001 205.065 271.026 202.54 273.676 200.74C276.326 198.89 279.476 197.965 283.126 197.965C288.676 197.965 292.976 199.74 296.026 203.29C299.076 206.79 300.601 211.69 300.601 217.99ZM291.076 215.215C291.076 208.265 288.501 204.79 283.351 204.79C281.001 204.79 279.151 205.665 277.801 207.415C276.501 209.115 275.726 211.865 275.476 215.665H291.076V215.215Z" fill="#F2F7FF"/>
<path d="M328.788 198.04C330.238 198.04 331.563 198.215 332.763 198.565L331.113 207.865C329.913 207.565 328.738 207.415 327.588 207.415C325.238 207.415 323.388 208.265 322.038 209.965C320.688 211.615 319.613 214.165 318.813 217.615V238.765H309.213V199.09H317.538L318.438 206.89C319.388 204.04 320.763 201.865 322.563 200.365C324.363 198.815 326.438 198.04 328.788 198.04Z" fill="#F2F7FF"/>
</svg>
