<svg width="730" height="262" viewBox="0 0 730 262" fill="none" xmlns="http://www.w3.org/2000/svg">
<path d="M6.68275 82.5946C6.89875 80.396 8.84953 78.8465 11.0399 79.1336L716.901 171.644C719.092 171.931 720.692 173.946 720.476 176.145L713.813 243.967C713.597 246.165 711.646 247.715 709.456 247.428L3.59451 154.917C1.4041 154.63 -0.19647 152.615 0.0195282 150.417L6.68275 82.5946Z" fill="#0A0077"/>
<path d="M13.4226 3.49604C13.639 1.29752 15.5902 -0.252429 17.7807 0.0341189L725.653 92.6346C727.844 92.9211 729.444 94.9356 729.228 97.1342L722.552 164.955C722.336 167.154 720.385 168.704 718.194 168.417L10.3214 75.8165C8.13096 75.53 6.53066 73.5154 6.74706 71.3169L13.4226 3.49604Z" fill="#201CC8"/>
<path d="M44.5547 31.8125V83H34.8867V31.8125H44.5547ZM65.1914 53.9258V61.5547H42.0234V53.9258H65.1914ZM67.8984 31.8125V39.4414H42.0234V31.8125H67.8984Z" fill="white"/>
<path d="M82.1367 52.7305V83H72.8555V44.9609H81.6445L82.1367 52.7305ZM93.7031 44.7148L93.5625 53.3633C93.0469 53.2695 92.4609 53.1992 91.8047 53.1523C91.1719 53.1055 90.5742 53.082 90.0117 53.082C88.582 53.082 87.3281 53.2812 86.25 53.6797C85.1719 54.0547 84.2695 54.6055 83.543 55.332C82.8398 56.0586 82.3008 56.9492 81.9258 58.0039C81.5508 59.0352 81.3398 60.207 81.293 61.5195L79.2891 61.2734C79.2891 58.8594 79.5352 56.6211 80.0273 54.5586C80.5195 52.4961 81.2344 50.6914 82.1719 49.1445C83.1094 47.5977 84.2812 46.4023 85.6875 45.5586C87.1172 44.6914 88.7578 44.2578 90.6094 44.2578C91.125 44.2578 91.6758 44.3047 92.2617 44.3984C92.8711 44.4688 93.3516 44.5742 93.7031 44.7148Z" fill="white"/>
<path d="M96.1641 64.3672V63.6289C96.1641 60.8398 96.5625 58.2734 97.3594 55.9297C98.1562 53.5625 99.3164 51.5117 100.84 49.7773C102.363 48.043 104.227 46.6953 106.43 45.7344C108.633 44.75 111.141 44.2578 113.953 44.2578C116.812 44.2578 119.344 44.75 121.547 45.7344C123.773 46.6953 125.648 48.043 127.172 49.7773C128.695 51.5117 129.855 53.5625 130.652 55.9297C131.449 58.2734 131.848 60.8398 131.848 63.6289V64.3672C131.848 67.1328 131.449 69.6992 130.652 72.0664C129.855 74.4102 128.695 76.4609 127.172 78.2188C125.648 79.9531 123.785 81.3008 121.582 82.2617C119.379 83.2227 116.859 83.7031 114.023 83.7031C111.211 83.7031 108.691 83.2227 106.465 82.2617C104.238 81.3008 102.363 79.9531 100.84 78.2188C99.3164 76.4609 98.1562 74.4102 97.3594 72.0664C96.5625 69.6992 96.1641 67.1328 96.1641 64.3672ZM105.445 63.6289V64.3672C105.445 66.0312 105.609 67.5898 105.938 69.043C106.266 70.4961 106.77 71.7734 107.449 72.875C108.129 73.9766 109.008 74.8438 110.086 75.4766C111.188 76.0859 112.5 76.3906 114.023 76.3906C115.523 76.3906 116.812 76.0859 117.891 75.4766C118.969 74.8438 119.848 73.9766 120.527 72.875C121.23 71.7734 121.746 70.4961 122.074 69.043C122.402 67.5898 122.566 66.0312 122.566 64.3672V63.6289C122.566 61.9883 122.402 60.4531 122.074 59.0234C121.746 57.5703 121.23 56.293 120.527 55.1914C119.848 54.0664 118.957 53.1875 117.855 52.5547C116.777 51.8984 115.477 51.5703 113.953 51.5703C112.453 51.5703 111.164 51.8984 110.086 52.5547C109.008 53.1875 108.129 54.0664 107.449 55.1914C106.77 56.293 106.266 57.5703 105.938 59.0234C105.609 60.4531 105.445 61.9883 105.445 63.6289Z" fill="white"/>
<path d="M147.703 53.082V83H138.422V44.9609H147.141L147.703 53.082ZM146.227 62.6094H143.484C143.508 59.8438 143.883 57.3359 144.609 55.0859C145.336 52.8359 146.355 50.9023 147.668 49.2852C149.004 47.668 150.586 46.4258 152.414 45.5586C154.242 44.6914 156.281 44.2578 158.531 44.2578C160.359 44.2578 162.012 44.5156 163.488 45.0312C164.965 45.5469 166.23 46.3672 167.285 47.4922C168.363 48.6172 169.184 50.0938 169.746 51.9219C170.332 53.7266 170.625 55.9531 170.625 58.6016V83H161.273V58.5312C161.273 56.7969 161.016 55.4258 160.5 54.418C160.008 53.4102 159.281 52.6953 158.32 52.2734C157.383 51.8516 156.223 51.6406 154.84 51.6406C153.41 51.6406 152.156 51.9336 151.078 52.5195C150.023 53.082 149.133 53.8672 148.406 54.875C147.703 55.8828 147.164 57.043 146.789 58.3555C146.414 59.668 146.227 61.0859 146.227 62.6094Z" fill="white"/>
<path d="M196.816 44.9609V51.6406H175.02V44.9609H196.816ZM180.855 35.6094H190.172V72.0312C190.172 73.1562 190.324 74.0234 190.629 74.6328C190.934 75.2422 191.391 75.6523 192 75.8633C192.609 76.0742 193.336 76.1797 194.18 76.1797C194.789 76.1797 195.352 76.1445 195.867 76.0742C196.383 76.0039 196.816 75.9336 197.168 75.8633L197.203 82.8242C196.43 83.082 195.551 83.293 194.566 83.457C193.605 83.6211 192.516 83.7031 191.297 83.7031C189.211 83.7031 187.383 83.3516 185.812 82.6484C184.242 81.9219 183.023 80.7617 182.156 79.168C181.289 77.5508 180.855 75.418 180.855 72.7695V35.6094Z" fill="white"/>
<path d="M255.562 75.4062V83H228.352V75.4062H255.562ZM231.305 31.8125V83H221.637V31.8125H231.305ZM252.012 52.9414V60.3594H228.352V52.9414H252.012ZM255.457 31.8125V39.4414H228.352V31.8125H255.457Z" fill="white"/>
<path d="M270.68 53.082V83H261.398V44.9609H270.117L270.68 53.082ZM269.203 62.6094H266.461C266.484 59.8438 266.859 57.3359 267.586 55.0859C268.312 52.8359 269.332 50.9023 270.645 49.2852C271.98 47.668 273.562 46.4258 275.391 45.5586C277.219 44.6914 279.258 44.2578 281.508 44.2578C283.336 44.2578 284.988 44.5156 286.465 45.0312C287.941 45.5469 289.207 46.3672 290.262 47.4922C291.34 48.6172 292.16 50.0938 292.723 51.9219C293.309 53.7266 293.602 55.9531 293.602 58.6016V83H284.25V58.5312C284.25 56.7969 283.992 55.4258 283.477 54.418C282.984 53.4102 282.258 52.6953 281.297 52.2734C280.359 51.8516 279.199 51.6406 277.816 51.6406C276.387 51.6406 275.133 51.9336 274.055 52.5195C273 53.082 272.109 53.8672 271.383 54.875C270.68 55.8828 270.141 57.043 269.766 58.3555C269.391 59.668 269.203 61.0859 269.203 62.6094Z" fill="white"/>
<path d="M324.609 74.9141V29H333.961V83H325.523L324.609 74.9141ZM300.176 64.4375V63.6992C300.176 60.793 300.504 58.1562 301.16 55.7891C301.84 53.3984 302.824 51.3477 304.113 49.6367C305.402 47.9258 306.961 46.6016 308.789 45.6641C310.641 44.7266 312.738 44.2578 315.082 44.2578C317.355 44.2578 319.336 44.7148 321.023 45.6289C322.734 46.543 324.188 47.8438 325.383 49.5312C326.602 51.2188 327.574 53.2227 328.301 55.543C329.027 57.8398 329.555 60.3711 329.883 63.1367V65.1406C329.555 67.8359 329.027 70.3086 328.301 72.5586C327.574 74.8086 326.602 76.7773 325.383 78.4648C324.188 80.1289 322.734 81.418 321.023 82.332C319.312 83.2461 317.309 83.7031 315.012 83.7031C312.691 83.7031 310.605 83.2227 308.754 82.2617C306.926 81.3008 305.367 79.9531 304.078 78.2188C302.812 76.4844 301.84 74.4453 301.16 72.1016C300.504 69.7578 300.176 67.2031 300.176 64.4375ZM309.492 63.6992V64.4375C309.492 66.0781 309.633 67.6133 309.914 69.043C310.195 70.4727 310.652 71.7383 311.285 72.8398C311.918 73.918 312.727 74.7617 313.711 75.3711C314.719 75.9805 315.938 76.2852 317.367 76.2852C319.195 76.2852 320.695 75.8867 321.867 75.0898C323.062 74.2695 323.988 73.1562 324.645 71.75C325.301 70.3203 325.723 68.7148 325.91 66.9336V61.4141C325.816 60.0078 325.57 58.707 325.172 57.5117C324.797 56.3164 324.258 55.2852 323.555 54.418C322.875 53.5508 322.031 52.8711 321.023 52.3789C320.016 51.8867 318.82 51.6406 317.438 51.6406C316.008 51.6406 314.789 51.957 313.781 52.5898C312.773 53.1992 311.953 54.0547 311.32 55.1562C310.688 56.2578 310.219 57.5352 309.914 58.9883C309.633 60.4414 309.492 62.0117 309.492 63.6992Z" fill="white"/>
<path d="M376.289 83H365.25L365.32 75.4062H376.289C379.266 75.4062 381.762 74.75 383.777 73.4375C385.793 72.1016 387.316 70.1914 388.348 67.707C389.379 65.1992 389.895 62.1992 389.895 58.707V56.0703C389.895 53.375 389.602 50.9961 389.016 48.9336C388.43 46.8711 387.562 45.1367 386.414 43.7305C385.289 42.3242 383.895 41.2578 382.23 40.5312C380.566 39.8047 378.656 39.4414 376.5 39.4414H365.039V31.8125H376.5C379.922 31.8125 383.039 32.3867 385.852 33.5352C388.688 34.6836 391.137 36.3359 393.199 38.4922C395.285 40.625 396.879 43.1797 397.98 46.1562C399.105 49.1328 399.668 52.4609 399.668 56.1406V58.707C399.668 62.3633 399.105 65.6914 397.98 68.6914C396.879 71.668 395.285 74.2227 393.199 76.3555C391.137 78.4883 388.676 80.1289 385.816 81.2773C382.957 82.4258 379.781 83 376.289 83ZM370.664 31.8125V83H360.996V31.8125H370.664Z" fill="white"/>
<path d="M424.277 83.7031C421.395 83.7031 418.805 83.2344 416.508 82.2969C414.211 81.3594 412.254 80.0586 410.637 78.3945C409.043 76.707 407.812 74.75 406.945 72.5234C406.102 70.2734 405.68 67.8594 405.68 65.2812V63.875C405.68 60.9453 406.102 58.2852 406.945 55.8945C407.789 53.4805 408.984 51.4062 410.531 49.6719C412.078 47.9375 413.93 46.6016 416.086 45.6641C418.242 44.7266 420.621 44.2578 423.223 44.2578C425.918 44.2578 428.297 44.7148 430.359 45.6289C432.422 46.5195 434.145 47.7852 435.527 49.4258C436.91 51.0664 437.953 53.0352 438.656 55.332C439.359 57.6055 439.711 60.125 439.711 62.8906V66.793H409.898V60.3945H430.57V59.6914C430.523 58.2148 430.242 56.8672 429.727 55.6484C429.211 54.4062 428.414 53.4219 427.336 52.6953C426.258 51.9453 424.863 51.5703 423.152 51.5703C421.77 51.5703 420.562 51.875 419.531 52.4844C418.523 53.0703 417.68 53.9141 417 55.0156C416.344 56.0938 415.852 57.3828 415.523 58.8828C415.195 60.3828 415.031 62.0469 415.031 63.875V65.2812C415.031 66.875 415.242 68.3516 415.664 69.7109C416.109 71.0703 416.754 72.2539 417.598 73.2617C418.465 74.2461 419.496 75.0195 420.691 75.582C421.91 76.1211 423.293 76.3906 424.84 76.3906C426.785 76.3906 428.543 76.0156 430.113 75.2656C431.707 74.4922 433.09 73.3555 434.262 71.8555L438.938 76.707C438.141 77.8789 437.062 79.0039 435.703 80.082C434.367 81.1602 432.75 82.0391 430.852 82.7188C428.953 83.375 426.762 83.7031 424.277 83.7031Z" fill="white"/>
<path d="M458.062 75.9688L466.922 44.9609H476.625L463.582 83H457.676L458.062 75.9688ZM451.594 44.9609L460.559 76.0391L460.875 83H454.934L441.855 44.9609H451.594Z" fill="white"/>
<path d="M498.105 83.7031C495.223 83.7031 492.633 83.2344 490.336 82.2969C488.039 81.3594 486.082 80.0586 484.465 78.3945C482.871 76.707 481.641 74.75 480.773 72.5234C479.93 70.2734 479.508 67.8594 479.508 65.2812V63.875C479.508 60.9453 479.93 58.2852 480.773 55.8945C481.617 53.4805 482.812 51.4062 484.359 49.6719C485.906 47.9375 487.758 46.6016 489.914 45.6641C492.07 44.7266 494.449 44.2578 497.051 44.2578C499.746 44.2578 502.125 44.7148 504.188 45.6289C506.25 46.5195 507.973 47.7852 509.355 49.4258C510.738 51.0664 511.781 53.0352 512.484 55.332C513.188 57.6055 513.539 60.125 513.539 62.8906V66.793H483.727V60.3945H504.398V59.6914C504.352 58.2148 504.07 56.8672 503.555 55.6484C503.039 54.4062 502.242 53.4219 501.164 52.6953C500.086 51.9453 498.691 51.5703 496.98 51.5703C495.598 51.5703 494.391 51.875 493.359 52.4844C492.352 53.0703 491.508 53.9141 490.828 55.0156C490.172 56.0938 489.68 57.3828 489.352 58.8828C489.023 60.3828 488.859 62.0469 488.859 63.875V65.2812C488.859 66.875 489.07 68.3516 489.492 69.7109C489.938 71.0703 490.582 72.2539 491.426 73.2617C492.293 74.2461 493.324 75.0195 494.52 75.582C495.738 76.1211 497.121 76.3906 498.668 76.3906C500.613 76.3906 502.371 76.0156 503.941 75.2656C505.535 74.4922 506.918 73.3555 508.09 71.8555L512.766 76.707C511.969 77.8789 510.891 79.0039 509.531 80.082C508.195 81.1602 506.578 82.0391 504.68 82.7188C502.781 83.375 500.59 83.7031 498.105 83.7031Z" fill="white"/>
<path d="M529.605 29V83H520.289V29H529.605Z" fill="white"/>
<path d="M536.812 64.3672V63.6289C536.812 60.8398 537.211 58.2734 538.008 55.9297C538.805 53.5625 539.965 51.5117 541.488 49.7773C543.012 48.043 544.875 46.6953 547.078 45.7344C549.281 44.75 551.789 44.2578 554.602 44.2578C557.461 44.2578 559.992 44.75 562.195 45.7344C564.422 46.6953 566.297 48.043 567.82 49.7773C569.344 51.5117 570.504 53.5625 571.301 55.9297C572.098 58.2734 572.496 60.8398 572.496 63.6289V64.3672C572.496 67.1328 572.098 69.6992 571.301 72.0664C570.504 74.4102 569.344 76.4609 567.82 78.2188C566.297 79.9531 564.434 81.3008 562.23 82.2617C560.027 83.2227 557.508 83.7031 554.672 83.7031C551.859 83.7031 549.34 83.2227 547.113 82.2617C544.887 81.3008 543.012 79.9531 541.488 78.2188C539.965 76.4609 538.805 74.4102 538.008 72.0664C537.211 69.6992 536.812 67.1328 536.812 64.3672ZM546.094 63.6289V64.3672C546.094 66.0312 546.258 67.5898 546.586 69.043C546.914 70.4961 547.418 71.7734 548.098 72.875C548.777 73.9766 549.656 74.8438 550.734 75.4766C551.836 76.0859 553.148 76.3906 554.672 76.3906C556.172 76.3906 557.461 76.0859 558.539 75.4766C559.617 74.8438 560.496 73.9766 561.176 72.875C561.879 71.7734 562.395 70.4961 562.723 69.043C563.051 67.5898 563.215 66.0312 563.215 64.3672V63.6289C563.215 61.9883 563.051 60.4531 562.723 59.0234C562.395 57.5703 561.879 56.293 561.176 55.1914C560.496 54.0664 559.605 53.1875 558.504 52.5547C557.426 51.8984 556.125 51.5703 554.602 51.5703C553.102 51.5703 551.812 51.8984 550.734 52.5547C549.656 53.1875 548.777 54.0664 548.098 55.1914C547.418 56.293 546.914 57.5703 546.586 59.0234C546.258 60.4531 546.094 61.9883 546.094 63.6289Z" fill="white"/>
<path d="M588.527 52.2734V97.625H579.211V44.9609H587.824L588.527 52.2734ZM612.961 63.5938V64.332C612.961 67.0977 612.633 69.6641 611.977 72.0312C611.344 74.375 610.406 76.4258 609.164 78.1836C607.922 79.918 606.375 81.2773 604.523 82.2617C602.695 83.2227 600.586 83.7031 598.195 83.7031C595.852 83.7031 593.812 83.2578 592.078 82.3672C590.344 81.4531 588.879 80.1641 587.684 78.5C586.488 76.8359 585.527 74.9023 584.801 72.6992C584.098 70.4727 583.57 68.0469 583.219 65.4219V63.0664C583.57 60.2773 584.098 57.7461 584.801 55.4727C585.527 53.1758 586.488 51.1953 587.684 49.5312C588.879 47.8438 590.332 46.543 592.043 45.6289C593.777 44.7148 595.805 44.2578 598.125 44.2578C600.539 44.2578 602.66 44.7148 604.488 45.6289C606.34 46.543 607.898 47.8555 609.164 49.5664C610.43 51.2773 611.379 53.3164 612.012 55.6836C612.645 58.0508 612.961 60.6875 612.961 63.5938ZM603.645 64.332V63.5938C603.645 61.9062 603.492 60.3477 603.188 58.918C602.883 57.4648 602.414 56.1992 601.781 55.1211C601.148 54.0195 600.328 53.1641 599.32 52.5547C598.312 51.9453 597.094 51.6406 595.664 51.6406C594.234 51.6406 593.004 51.875 591.973 52.3438C590.941 52.8125 590.098 53.4805 589.441 54.3477C588.785 55.2148 588.27 56.2461 587.895 57.4414C587.543 58.6133 587.309 59.9141 587.191 61.3438V67.1797C587.402 68.9141 587.812 70.4727 588.422 71.8555C589.031 73.2383 589.922 74.3398 591.094 75.1602C592.289 75.9805 593.836 76.3906 595.734 76.3906C597.164 76.3906 598.383 76.0742 599.391 75.4414C600.398 74.8086 601.219 73.9414 601.852 72.8398C602.484 71.7148 602.941 70.4258 603.223 68.9727C603.504 67.5195 603.645 65.9727 603.645 64.332Z" fill="white"/>
<path d="M636.832 83.7031C633.949 83.7031 631.359 83.2344 629.062 82.2969C626.766 81.3594 624.809 80.0586 623.191 78.3945C621.598 76.707 620.367 74.75 619.5 72.5234C618.656 70.2734 618.234 67.8594 618.234 65.2812V63.875C618.234 60.9453 618.656 58.2852 619.5 55.8945C620.344 53.4805 621.539 51.4062 623.086 49.6719C624.633 47.9375 626.484 46.6016 628.641 45.6641C630.797 44.7266 633.176 44.2578 635.777 44.2578C638.473 44.2578 640.852 44.7148 642.914 45.6289C644.977 46.5195 646.699 47.7852 648.082 49.4258C649.465 51.0664 650.508 53.0352 651.211 55.332C651.914 57.6055 652.266 60.125 652.266 62.8906V66.793H622.453V60.3945H643.125V59.6914C643.078 58.2148 642.797 56.8672 642.281 55.6484C641.766 54.4062 640.969 53.4219 639.891 52.6953C638.812 51.9453 637.418 51.5703 635.707 51.5703C634.324 51.5703 633.117 51.875 632.086 52.4844C631.078 53.0703 630.234 53.9141 629.555 55.0156C628.898 56.0938 628.406 57.3828 628.078 58.8828C627.75 60.3828 627.586 62.0469 627.586 63.875V65.2812C627.586 66.875 627.797 68.3516 628.219 69.7109C628.664 71.0703 629.309 72.2539 630.152 73.2617C631.02 74.2461 632.051 75.0195 633.246 75.582C634.465 76.1211 635.848 76.3906 637.395 76.3906C639.34 76.3906 641.098 76.0156 642.668 75.2656C644.262 74.4922 645.645 73.3555 646.816 71.8555L651.492 76.707C650.695 77.8789 649.617 79.0039 648.258 80.082C646.922 81.1602 645.305 82.0391 643.406 82.7188C641.508 83.375 639.316 83.7031 636.832 83.7031Z" fill="white"/>
<path d="M667.77 52.7305V83H658.488V44.9609H667.277L667.77 52.7305ZM679.336 44.7148L679.195 53.3633C678.68 53.2695 678.094 53.1992 677.438 53.1523C676.805 53.1055 676.207 53.082 675.645 53.082C674.215 53.082 672.961 53.2812 671.883 53.6797C670.805 54.0547 669.902 54.6055 669.176 55.332C668.473 56.0586 667.934 56.9492 667.559 58.0039C667.184 59.0352 666.973 60.207 666.926 61.5195L664.922 61.2734C664.922 58.8594 665.168 56.6211 665.66 54.5586C666.152 52.4961 666.867 50.6914 667.805 49.1445C668.742 47.5977 669.914 46.4023 671.32 45.5586C672.75 44.6914 674.391 44.2578 676.242 44.2578C676.758 44.2578 677.309 44.3047 677.895 44.3984C678.504 44.4688 678.984 44.5742 679.336 44.7148Z" fill="white"/>
<path d="M42.5508 137.367L51.8672 131.25C53.3438 130.266 54.3633 129.316 54.9258 128.402C55.4883 127.488 55.7695 126.387 55.7695 125.098C55.7695 123.949 55.3242 122.883 54.4336 121.898C53.5664 120.891 52.3359 120.387 50.7422 120.387C49.6172 120.387 48.668 120.645 47.8945 121.16C47.1211 121.676 46.5352 122.367 46.1367 123.234C45.7617 124.078 45.5742 125.016 45.5742 126.047C45.5742 127.102 45.8438 128.18 46.3828 129.281C46.9453 130.383 47.6953 131.543 48.6328 132.762C49.5938 133.957 50.6602 135.258 51.832 136.664L75.9844 165H65.3672L45.6094 142.008C43.9453 139.945 42.4688 138.047 41.1797 136.312C39.8906 134.578 38.8828 132.902 38.1562 131.285C37.4531 129.645 37.1016 127.957 37.1016 126.223C37.1016 123.551 37.6641 121.23 38.7891 119.262C39.9141 117.293 41.4961 115.77 43.5352 114.691C45.5977 113.613 48.0117 113.074 50.7773 113.074C53.4023 113.074 55.6641 113.613 57.5625 114.691C59.4844 115.746 60.9727 117.152 62.0273 118.91C63.082 120.668 63.6094 122.59 63.6094 124.676C63.6094 126.27 63.3164 127.746 62.7305 129.105C62.1445 130.441 61.3359 131.672 60.3047 132.797C59.2734 133.898 58.0781 134.941 56.7188 135.926L45.75 143.801C44.6953 144.691 43.8984 145.57 43.3594 146.438C42.8438 147.281 42.4922 148.066 42.3047 148.793C42.1406 149.52 42.0586 150.199 42.0586 150.832C42.0586 152.262 42.3633 153.551 42.9727 154.699C43.6055 155.824 44.4961 156.727 45.6445 157.406C46.8164 158.062 48.1992 158.391 49.793 158.391C51.7383 158.391 53.6133 157.957 55.418 157.09C57.2227 156.223 58.8398 154.992 60.2695 153.398C61.7227 151.805 62.8711 149.906 63.7148 147.703C64.582 145.477 65.0156 143.027 65.0156 140.355H72.9609C72.9609 142.91 72.7148 145.336 72.2227 147.633C71.7305 149.906 70.9336 152.016 69.832 153.961C68.7305 155.906 67.2891 157.641 65.5078 159.164C65.3438 159.305 65.1445 159.492 64.9102 159.727C64.6992 159.961 64.5117 160.148 64.3477 160.289C62.2148 162.117 59.9062 163.488 57.4219 164.402C54.9609 165.293 52.2773 165.738 49.3711 165.738C45.9492 165.738 42.9961 165.117 40.5117 163.875C38.0273 162.633 36.1055 160.922 34.7461 158.742C33.4102 156.562 32.7422 154.066 32.7422 151.254C32.7422 149.168 33.1523 147.352 33.9727 145.805C34.8164 144.234 35.9766 142.781 37.4531 141.445C38.9297 140.086 40.6289 138.727 42.5508 137.367Z" fill="white"/>
<path d="M128.051 113.812H137.719V147.809C137.719 151.723 136.875 155.016 135.188 157.688C133.5 160.336 131.203 162.34 128.297 163.699C125.391 165.035 122.086 165.703 118.383 165.703C114.633 165.703 111.293 165.035 108.363 163.699C105.434 162.34 103.137 160.336 101.473 157.688C99.8086 155.016 98.9766 151.723 98.9766 147.809V113.812H108.645V147.809C108.645 150.199 109.043 152.156 109.84 153.68C110.637 155.18 111.762 156.293 113.215 157.02C114.668 157.746 116.391 158.109 118.383 158.109C120.398 158.109 122.121 157.746 123.551 157.02C125.004 156.293 126.117 155.18 126.891 153.68C127.664 152.156 128.051 150.199 128.051 147.809V113.812Z" fill="white"/>
<path d="M157.195 113.812V165H147.527V113.812H157.195Z" fill="white"/>
<path d="M188.941 113.812L169.605 169.395H162.539L181.875 113.812H188.941Z" fill="white"/>
<path d="M223.535 113.812H233.203V147.809C233.203 151.723 232.359 155.016 230.672 157.688C228.984 160.336 226.688 162.34 223.781 163.699C220.875 165.035 217.57 165.703 213.867 165.703C210.117 165.703 206.777 165.035 203.848 163.699C200.918 162.34 198.621 160.336 196.957 157.688C195.293 155.016 194.461 151.723 194.461 147.809V113.812H204.129V147.809C204.129 150.199 204.527 152.156 205.324 153.68C206.121 155.18 207.246 156.293 208.699 157.02C210.152 157.746 211.875 158.109 213.867 158.109C215.883 158.109 217.605 157.746 219.035 157.02C220.488 156.293 221.602 155.18 222.375 153.68C223.148 152.156 223.535 150.199 223.535 147.809V113.812Z" fill="white"/>
<path d="M250.078 113.812L260.309 132.059L270.574 113.812H281.684L266.496 139.195L282.07 165H270.855L260.309 146.402L249.797 165H238.547L254.121 139.195L238.934 113.812H250.078Z" fill="white"/>
<path d="M50.1797 247H39.1406L39.2109 239.406H50.1797C53.1562 239.406 55.6523 238.75 57.668 237.438C59.6836 236.102 61.207 234.191 62.2383 231.707C63.2695 229.199 63.7852 226.199 63.7852 222.707V220.07C63.7852 217.375 63.4922 214.996 62.9062 212.934C62.3203 210.871 61.4531 209.137 60.3047 207.73C59.1797 206.324 57.7852 205.258 56.1211 204.531C54.457 203.805 52.5469 203.441 50.3906 203.441H38.9297V195.812H50.3906C53.8125 195.812 56.9297 196.387 59.7422 197.535C62.5781 198.684 65.0273 200.336 67.0898 202.492C69.1758 204.625 70.7695 207.18 71.8711 210.156C72.9961 213.133 73.5586 216.461 73.5586 220.141V222.707C73.5586 226.363 72.9961 229.691 71.8711 232.691C70.7695 235.668 69.1758 238.223 67.0898 240.355C65.0273 242.488 62.5664 244.129 59.707 245.277C56.8477 246.426 53.6719 247 50.1797 247ZM44.5547 195.812V247H34.8867V195.812H44.5547Z" fill="white"/>
<path d="M98.168 247.703C95.2852 247.703 92.6953 247.234 90.3984 246.297C88.1016 245.359 86.1445 244.059 84.5273 242.395C82.9336 240.707 81.7031 238.75 80.8359 236.523C79.9922 234.273 79.5703 231.859 79.5703 229.281V227.875C79.5703 224.945 79.9922 222.285 80.8359 219.895C81.6797 217.48 82.875 215.406 84.4219 213.672C85.9688 211.938 87.8203 210.602 89.9766 209.664C92.1328 208.727 94.5117 208.258 97.1133 208.258C99.8086 208.258 102.188 208.715 104.25 209.629C106.312 210.52 108.035 211.785 109.418 213.426C110.801 215.066 111.844 217.035 112.547 219.332C113.25 221.605 113.602 224.125 113.602 226.891V230.793H83.7891V224.395H104.461V223.691C104.414 222.215 104.133 220.867 103.617 219.648C103.102 218.406 102.305 217.422 101.227 216.695C100.148 215.945 98.7539 215.57 97.043 215.57C95.6602 215.57 94.4531 215.875 93.4219 216.484C92.4141 217.07 91.5703 217.914 90.8906 219.016C90.2344 220.094 89.7422 221.383 89.4141 222.883C89.0859 224.383 88.9219 226.047 88.9219 227.875V229.281C88.9219 230.875 89.1328 232.352 89.5547 233.711C90 235.07 90.6445 236.254 91.4883 237.262C92.3555 238.246 93.3867 239.02 94.582 239.582C95.8008 240.121 97.1836 240.391 98.7305 240.391C100.676 240.391 102.434 240.016 104.004 239.266C105.598 238.492 106.98 237.355 108.152 235.855L112.828 240.707C112.031 241.879 110.953 243.004 109.594 244.082C108.258 245.16 106.641 246.039 104.742 246.719C102.844 247.375 100.652 247.703 98.168 247.703Z" fill="white"/>
<path d="M140.742 236.594C140.742 235.797 140.531 235.082 140.109 234.449C139.688 233.816 138.891 233.242 137.719 232.727C136.57 232.188 134.883 231.684 132.656 231.215C130.688 230.793 128.871 230.266 127.207 229.633C125.543 229 124.113 228.238 122.918 227.348C121.723 226.434 120.785 225.367 120.105 224.148C119.449 222.906 119.121 221.477 119.121 219.859C119.121 218.289 119.461 216.812 120.141 215.43C120.82 214.023 121.805 212.793 123.094 211.738C124.383 210.66 125.953 209.816 127.805 209.207C129.656 208.574 131.742 208.258 134.062 208.258C137.297 208.258 140.074 208.785 142.395 209.84C144.738 210.895 146.531 212.348 147.773 214.199C149.016 216.027 149.637 218.09 149.637 220.387H140.355C140.355 219.379 140.121 218.465 139.652 217.645C139.207 216.824 138.516 216.168 137.578 215.676C136.641 215.16 135.457 214.902 134.027 214.902C132.738 214.902 131.648 215.113 130.758 215.535C129.891 215.957 129.234 216.508 128.789 217.188C128.344 217.867 128.121 218.617 128.121 219.438C128.121 220.047 128.238 220.598 128.473 221.09C128.73 221.559 129.141 221.992 129.703 222.391C130.266 222.789 131.027 223.152 131.988 223.48C132.973 223.809 134.18 224.125 135.609 224.43C138.445 224.992 140.918 225.742 143.027 226.68C145.16 227.594 146.824 228.812 148.02 230.336C149.215 231.859 149.812 233.805 149.812 236.172C149.812 237.859 149.449 239.406 148.723 240.812C147.996 242.195 146.941 243.402 145.559 244.434C144.176 245.465 142.523 246.273 140.602 246.859C138.68 247.422 136.512 247.703 134.098 247.703C130.605 247.703 127.652 247.082 125.238 245.84C122.824 244.574 120.996 242.98 119.754 241.059C118.512 239.113 117.891 237.098 117.891 235.012H126.785C126.855 236.488 127.254 237.672 127.98 238.562C128.707 239.453 129.621 240.098 130.723 240.496C131.848 240.871 133.031 241.059 134.273 241.059C135.68 241.059 136.863 240.871 137.824 240.496C138.785 240.098 139.512 239.57 140.004 238.914C140.496 238.234 140.742 237.461 140.742 236.594Z" fill="white"/>
<path d="M166.723 208.961V247H157.406V208.961H166.723ZM156.773 199.012C156.773 197.629 157.242 196.48 158.18 195.566C159.141 194.652 160.43 194.195 162.047 194.195C163.664 194.195 164.941 194.652 165.879 195.566C166.84 196.48 167.32 197.629 167.32 199.012C167.32 200.371 166.84 201.508 165.879 202.422C164.941 203.336 163.664 203.793 162.047 203.793C160.43 203.793 159.141 203.336 158.18 202.422C157.242 201.508 156.773 200.371 156.773 199.012Z" fill="white"/>
<path d="M199.77 208.961H208.207V245.84C208.207 249.285 207.457 252.203 205.957 254.594C204.48 257.008 202.406 258.836 199.734 260.078C197.062 261.344 193.957 261.977 190.418 261.977C188.895 261.977 187.242 261.766 185.461 261.344C183.703 260.922 182.004 260.254 180.363 259.34C178.746 258.449 177.398 257.289 176.32 255.859L180.504 250.375C181.77 251.852 183.199 252.965 184.793 253.715C186.387 254.488 188.109 254.875 189.961 254.875C191.836 254.875 193.43 254.523 194.742 253.82C196.078 253.141 197.098 252.133 197.801 250.797C198.527 249.484 198.891 247.867 198.891 245.945V217.645L199.77 208.961ZM174.07 228.438V227.699C174.07 224.793 174.422 222.156 175.125 219.789C175.828 217.398 176.836 215.348 178.148 213.637C179.484 211.926 181.09 210.602 182.965 209.664C184.863 208.727 186.996 208.258 189.363 208.258C191.871 208.258 193.98 208.715 195.691 209.629C197.426 210.543 198.855 211.844 199.98 213.531C201.129 215.219 202.02 217.223 202.652 219.543C203.309 221.84 203.812 224.371 204.164 227.137V229.141C203.836 231.836 203.309 234.309 202.582 236.559C201.879 238.809 200.941 240.777 199.77 242.465C198.598 244.129 197.145 245.418 195.41 246.332C193.676 247.246 191.637 247.703 189.293 247.703C186.949 247.703 184.84 247.223 182.965 246.262C181.09 245.301 179.484 243.953 178.148 242.219C176.836 240.484 175.828 238.445 175.125 236.102C174.422 233.758 174.07 231.203 174.07 228.438ZM183.352 227.699V228.438C183.352 230.078 183.516 231.613 183.844 233.043C184.172 234.473 184.676 235.738 185.355 236.84C186.035 237.918 186.891 238.762 187.922 239.371C188.953 239.98 190.184 240.285 191.613 240.285C193.535 240.285 195.105 239.887 196.324 239.09C197.566 238.27 198.504 237.156 199.137 235.75C199.793 234.32 200.215 232.715 200.402 230.934V225.414C200.285 224.008 200.027 222.707 199.629 221.512C199.254 220.316 198.727 219.285 198.047 218.418C197.367 217.551 196.5 216.871 195.445 216.379C194.391 215.887 193.137 215.641 191.684 215.641C190.277 215.641 189.047 215.957 187.992 216.59C186.938 217.199 186.07 218.055 185.391 219.156C184.711 220.258 184.195 221.535 183.844 222.988C183.516 224.441 183.352 226.012 183.352 227.699Z" fill="white"/>
<path d="M225.68 217.082V247H216.398V208.961H225.117L225.68 217.082ZM224.203 226.609H221.461C221.484 223.844 221.859 221.336 222.586 219.086C223.312 216.836 224.332 214.902 225.645 213.285C226.98 211.668 228.562 210.426 230.391 209.559C232.219 208.691 234.258 208.258 236.508 208.258C238.336 208.258 239.988 208.516 241.465 209.031C242.941 209.547 244.207 210.367 245.262 211.492C246.34 212.617 247.16 214.094 247.723 215.922C248.309 217.727 248.602 219.953 248.602 222.602V247H239.25V222.531C239.25 220.797 238.992 219.426 238.477 218.418C237.984 217.41 237.258 216.695 236.297 216.273C235.359 215.852 234.199 215.641 232.816 215.641C231.387 215.641 230.133 215.934 229.055 216.52C228 217.082 227.109 217.867 226.383 218.875C225.68 219.883 225.141 221.043 224.766 222.355C224.391 223.668 224.203 225.086 224.203 226.609Z" fill="white"/>
<path d="M273.879 247.703C270.996 247.703 268.406 247.234 266.109 246.297C263.812 245.359 261.855 244.059 260.238 242.395C258.645 240.707 257.414 238.75 256.547 236.523C255.703 234.273 255.281 231.859 255.281 229.281V227.875C255.281 224.945 255.703 222.285 256.547 219.895C257.391 217.48 258.586 215.406 260.133 213.672C261.68 211.938 263.531 210.602 265.688 209.664C267.844 208.727 270.223 208.258 272.824 208.258C275.52 208.258 277.898 208.715 279.961 209.629C282.023 210.52 283.746 211.785 285.129 213.426C286.512 215.066 287.555 217.035 288.258 219.332C288.961 221.605 289.312 224.125 289.312 226.891V230.793H259.5V224.395H280.172V223.691C280.125 222.215 279.844 220.867 279.328 219.648C278.812 218.406 278.016 217.422 276.938 216.695C275.859 215.945 274.465 215.57 272.754 215.57C271.371 215.57 270.164 215.875 269.133 216.484C268.125 217.07 267.281 217.914 266.602 219.016C265.945 220.094 265.453 221.383 265.125 222.883C264.797 224.383 264.633 226.047 264.633 227.875V229.281C264.633 230.875 264.844 232.352 265.266 233.711C265.711 235.07 266.355 236.254 267.199 237.262C268.066 238.246 269.098 239.02 270.293 239.582C271.512 240.121 272.895 240.391 274.441 240.391C276.387 240.391 278.145 240.016 279.715 239.266C281.309 238.492 282.691 237.355 283.863 235.855L288.539 240.707C287.742 241.879 286.664 243.004 285.305 244.082C283.969 245.16 282.352 246.039 280.453 246.719C278.555 247.375 276.363 247.703 273.879 247.703Z" fill="white"/>
<path d="M304.816 216.73V247H295.535V208.961H304.324L304.816 216.73ZM316.383 208.715L316.242 217.363C315.727 217.27 315.141 217.199 314.484 217.152C313.852 217.105 313.254 217.082 312.691 217.082C311.262 217.082 310.008 217.281 308.93 217.68C307.852 218.055 306.949 218.605 306.223 219.332C305.52 220.059 304.98 220.949 304.605 222.004C304.23 223.035 304.02 224.207 303.973 225.52L301.969 225.273C301.969 222.859 302.215 220.621 302.707 218.559C303.199 216.496 303.914 214.691 304.852 213.145C305.789 211.598 306.961 210.402 308.367 209.559C309.797 208.691 311.438 208.258 313.289 208.258C313.805 208.258 314.355 208.305 314.941 208.398C315.551 208.469 316.031 208.574 316.383 208.715Z" fill="white"/>
</svg>
