<svg width="45" height="50" viewBox="0 0 45 50" fill="none" xmlns="http://www.w3.org/2000/svg">
<path d="M0 0L3.94737 44.7368L22.3684 50L40.7895 44.7368C42.1053 29.825 43.4211 14.9118 44.7368 0H0ZM2.87315 2.63158H41.8637L38.3275 42.704L22.3684 47.2631L6.40933 42.704L2.87315 2.63158ZM12.5668 10.5263L11.3024 26.3158H28.3948L27.8552 32.8947L22.3684 33.7094L16.9485 32.8947L16.7095 30.2632H11.6314L12.1454 36.8421L22.3556 39.4737L32.5786 36.8421L33.8816 21.0526H17.2235L17.6449 15.7895H28.6441L28.9474 18.4211H33.8148L32.8947 10.5263H12.5668Z" fill="#5793ED"/>
</svg>
