<svg width="23" height="23" viewBox="0 0 23 23" fill="none" xmlns="http://www.w3.org/2000/svg">
<path d="M10.9603 22.3531L15.5354 9.01975H17.6471L22.2222 22.3531H20.1106L19.0548 18.9642H14.178L13.0719 22.3531H10.9603ZM14.7813 17.0197H18.4012L16.6415 11.5197H16.541L14.7813 17.0197ZM3.01659 19.0197L1.60885 17.4642L6.68678 11.8531C6.04994 11.0753 5.49271 10.2697 5.01508 9.43642C4.53746 8.60308 4.12267 7.72345 3.77074 6.79753H5.88235C6.18401 7.46419 6.50662 8.06604 6.85018 8.60308C7.19373 9.14012 7.60851 9.70494 8.09452 10.2975C8.83191 9.40864 9.44361 8.4966 9.92961 7.56142C10.4156 6.62623 10.8262 5.63086 11.1614 4.5753H0V2.35308H7.03871V0.130859H9.04977V2.35308H16.0885V4.5753H13.1724C12.8205 5.89012 12.3429 7.1679 11.7396 8.40864C11.1362 9.64938 10.3905 10.816 9.50226 11.9086L11.9155 14.6309L11.1614 16.9086L8.04424 13.4642L3.01659 19.0197Z" fill="#5793ED"/>
</svg>
