<svg width="50" height="50" viewBox="0 0 50 50" fill="none" xmlns="http://www.w3.org/2000/svg">
<path d="M45.9989 0.0044841H4.28115C3.74344 -0.0207011 3.20602 0.060386 2.69969 0.243151C2.19336 0.425915 1.72805 0.706732 1.33038 1.06951C0.932729 1.43232 0.610518 1.87 0.382242 2.35746C0.153966 2.84494 0.0240619 3.37264 0 3.91038V45.7191C0.0314993 46.8443 0.492676 47.9152 1.28881 48.7111C2.08495 49.5072 3.15568 49.9684 4.28115 50H45.9989C47.093 49.9513 48.1245 49.4757 48.8723 48.6754C49.6201 47.8752 50.0245 46.814 49.9988 45.7191V3.91038C50.0079 3.38699 49.9098 2.86732 49.7107 2.38317C49.5117 1.89906 49.2157 1.46069 48.8411 1.09495C48.4667 0.72923 48.0214 0.443882 47.5327 0.256368C47.0439 0.0688541 46.5221 -0.0168577 45.9989 0.0044841ZM15.6246 41.6883H8.34356V19.4091H15.6246V41.6883ZM12.156 16.0343C11.6479 16.052 11.1416 15.9644 10.669 15.7771C10.1964 15.5898 9.76756 15.3068 9.40956 14.9459C9.05154 14.585 8.77202 14.1539 8.58858 13.6798C8.40512 13.2057 8.32171 12.6988 8.34356 12.1909C8.32109 11.6775 8.40618 11.1651 8.5934 10.6865C8.78061 10.208 9.06579 9.77381 9.43063 9.41194C9.79549 9.05003 10.232 8.7684 10.712 8.5851C11.1921 8.40178 11.7053 8.32085 12.2185 8.34747C12.7266 8.32978 13.2328 8.41731 13.7054 8.6046C14.1781 8.7919 14.6069 9.0749 14.9649 9.43584C15.3229 9.79677 15.6024 10.2278 15.7859 10.7019C15.9693 11.1761 16.0527 11.683 16.0309 12.1909C16.0533 12.7043 15.9683 13.2167 15.781 13.6952C15.5938 14.1738 15.3086 14.6079 14.9438 14.9698C14.5789 15.3317 14.1425 15.6133 13.6624 15.7966C13.1823 15.98 12.6692 16.0609 12.156 16.0343ZM41.6865 41.6883H34.3742V29.5019C34.3742 26.5959 33.343 24.5961 30.7493 24.5961C29.9437 24.603 29.1596 24.8589 28.5053 25.3288C27.8506 25.7988 27.3575 26.4597 27.0931 27.2208C26.89 27.7914 26.805 28.3973 26.8431 29.0019V41.6883H19.6558V19.4091H26.8431V22.5338C27.4822 21.3598 28.4331 20.3855 29.5912 19.7181C30.7493 19.051 32.0693 18.7169 33.4055 18.7528C38.1241 18.7528 41.6865 21.8776 41.6865 28.5332V41.6883Z" fill="#5793ED"/>
</svg>
