<svg width="30" height="38" viewBox="0 0 30 38" fill="none" xmlns="http://www.w3.org/2000/svg">
<path d="M15 18.75C16.0312 18.75 16.9141 18.3828 17.6484 17.6484C18.3828 16.9141 18.75 16.0312 18.75 15C18.75 13.9688 18.3828 13.0859 17.6484 12.3516C16.9141 11.6172 16.0312 11.25 15 11.25C13.9688 11.25 13.0859 11.6172 12.3516 12.3516C11.6172 13.0859 11.25 13.9688 11.25 15C11.25 16.0312 11.6172 16.9141 12.3516 17.6484C13.0859 18.3828 13.9688 18.75 15 18.75ZM15 32.5312C18.8125 29.0312 21.6406 25.8516 23.4844 22.9922C25.3281 20.1328 26.25 17.5938 26.25 15.375C26.25 11.9688 25.1641 9.17969 22.9922 7.00781C20.8203 4.83594 18.1562 3.75 15 3.75C11.8438 3.75 9.17969 4.83594 7.00781 7.00781C4.83594 9.17969 3.75 11.9688 3.75 15.375C3.75 17.5938 4.67188 20.1328 6.51562 22.9922C8.35938 25.8516 11.1875 29.0312 15 32.5312ZM15 37.5C9.96875 33.2188 6.21094 29.2422 3.72656 25.5703C1.24219 21.8984 0 18.5 0 15.375C0 10.6875 1.50781 6.95312 4.52344 4.17188C7.53906 1.39062 11.0312 0 15 0C18.9688 0 22.4609 1.39062 25.4766 4.17188C28.4922 6.95312 30 10.6875 30 15.375C30 18.5 28.7578 21.8984 26.2734 25.5703C23.7891 29.2422 20.0312 33.2188 15 37.5Z" fill="#5793ED"/>
</svg>
