<svg width="170" height="71" viewBox="0 0 170 71" fill="none" xmlns="http://www.w3.org/2000/svg">
<path d="M21.56 5.28L20.92 10.32H14.08V33H7.52V10.32H0.360001V5.28H21.56Z" fill="#5793ED"/>
<path d="M30.4016 11.76V33H24.0816V11.76H30.4016ZM27.2016 0.559998C28.2949 0.559998 29.1882 0.906665 29.8816 1.6C30.6016 2.26666 30.9616 3.12 30.9616 4.16C30.9616 5.2 30.6016 6.06666 29.8816 6.76C29.1882 7.42666 28.2949 7.76 27.2016 7.76C26.1082 7.76 25.2149 7.42666 24.5216 6.76C23.8282 6.06666 23.4816 5.2 23.4816 4.16C23.4816 3.12 23.8282 2.26666 24.5216 1.6C25.2149 0.906665 26.1082 0.559998 27.2016 0.559998Z" fill="#F2F7FF"/>
<path d="M52.2506 26.84C52.2506 27.64 52.3573 28.2267 52.5706 28.6C52.8106 28.9733 53.184 29.2533 53.6906 29.44L52.3706 33.56C51.064 33.4533 49.9973 33.1733 49.1706 32.72C48.344 32.24 47.704 31.4933 47.2506 30.48C45.864 32.6133 43.7306 33.68 40.8506 33.68C38.744 33.68 37.064 33.0667 35.8106 31.84C34.5573 30.6133 33.9306 29.0133 33.9306 27.04C33.9306 24.72 34.784 22.9467 36.4906 21.72C38.1973 20.4933 40.664 19.88 43.8906 19.88H46.0506V18.96C46.0506 17.7067 45.784 16.8533 45.2506 16.4C44.7173 15.92 43.784 15.68 42.4506 15.68C41.7573 15.68 40.9173 15.7867 39.9306 16C38.944 16.1867 37.9306 16.4533 36.8906 16.8L35.4506 12.64C36.784 12.1333 38.144 11.7467 39.5306 11.48C40.944 11.2133 42.2506 11.08 43.4506 11.08C46.4906 11.08 48.7173 11.7067 50.1306 12.96C51.544 14.2133 52.2506 16.0933 52.2506 18.6V26.84ZM42.6906 29.16C44.1306 29.16 45.2506 28.48 46.0506 27.12V23.36H44.4906C43.0506 23.36 41.9706 23.6133 41.2506 24.12C40.5573 24.6267 40.2106 25.4133 40.2106 26.48C40.2106 27.3333 40.424 28 40.8506 28.48C41.304 28.9333 41.9173 29.16 42.6906 29.16Z" fill="#F2F7FF"/>
<path d="M76.4541 13C75.0674 13.56 73.0274 13.84 70.3341 13.84C71.7207 14.4267 72.7341 15.1467 73.3741 16C74.0141 16.8533 74.3341 17.96 74.3341 19.32C74.3341 20.68 73.9741 21.9067 73.2541 23C72.5341 24.0667 71.4941 24.9067 70.1341 25.52C68.8007 26.1333 67.2274 26.44 65.4141 26.44C64.5607 26.44 63.7474 26.36 62.9741 26.2C62.7607 26.3067 62.5874 26.48 62.4541 26.72C62.3474 26.9333 62.2941 27.16 62.2941 27.4C62.2941 27.8 62.4407 28.12 62.7341 28.36C63.0541 28.5733 63.6807 28.68 64.6141 28.68H67.8141C69.4407 28.68 70.8674 28.9467 72.0941 29.48C73.3207 30.0133 74.2674 30.7467 74.9341 31.68C75.6007 32.6133 75.9341 33.6667 75.9341 34.84C75.9341 37.0533 74.9741 38.7733 73.0541 40C71.1607 41.2533 68.4141 41.88 64.8141 41.88C62.2274 41.88 60.1874 41.6 58.6941 41.04C57.2007 40.5067 56.1474 39.7467 55.5341 38.76C54.9474 37.7733 54.6541 36.5333 54.6541 35.04H60.3341C60.3341 35.68 60.4541 36.1867 60.6941 36.56C60.9607 36.9333 61.4274 37.2133 62.0941 37.4C62.7607 37.5867 63.7207 37.68 64.9741 37.68C66.7074 37.68 67.9074 37.4667 68.5741 37.04C69.2407 36.64 69.5741 36.0533 69.5741 35.28C69.5741 34.64 69.3207 34.1333 68.8141 33.76C68.3074 33.3867 67.5474 33.2 66.5341 33.2H63.4541C61.2674 33.2 59.6274 32.8133 58.5341 32.04C57.4674 31.24 56.9341 30.2267 56.9341 29C56.9341 28.2267 57.1607 27.48 57.6141 26.76C58.0674 26.0133 58.6807 25.4 59.4541 24.92C58.1207 24.2 57.1474 23.36 56.5341 22.4C55.9474 21.4133 55.6541 20.2267 55.6541 18.84C55.6541 16.4667 56.5074 14.5867 58.2141 13.2C59.9207 11.7867 62.1741 11.08 64.9741 11.08C67.1074 11.1333 68.9074 10.92 70.3741 10.44C71.8674 9.96 73.4007 9.25333 74.9741 8.32L76.4541 13ZM65.1341 15.24C64.1474 15.24 63.3607 15.56 62.7741 16.2C62.2141 16.8133 61.9341 17.6667 61.9341 18.76C61.9341 19.9067 62.2141 20.8 62.7741 21.44C63.3607 22.0533 64.1474 22.36 65.1341 22.36C66.1741 22.36 66.9607 22.0533 67.4941 21.44C68.0541 20.8267 68.3341 19.9067 68.3341 18.68C68.3341 16.3867 67.2674 15.24 65.1341 15.24Z" fill="#F2F7FF"/>
<path d="M87.2269 11.08C90.4802 11.08 93.0269 12.08 94.8669 14.08C96.7069 16.0533 97.6269 18.8267 97.6269 22.4C97.6269 24.6667 97.2002 26.6533 96.3469 28.36C95.5202 30.04 94.3202 31.3467 92.7469 32.28C91.2002 33.2133 89.3602 33.68 87.2269 33.68C84.0002 33.68 81.4535 32.6933 79.5869 30.72C77.7469 28.72 76.8269 25.9333 76.8269 22.36C76.8269 20.0933 77.2402 18.12 78.0669 16.44C78.9202 14.7333 80.1202 13.4133 81.6669 12.48C83.2402 11.5467 85.0935 11.08 87.2269 11.08ZM87.2269 15.72C85.9469 15.72 84.9869 16.2667 84.3469 17.36C83.7069 18.4267 83.3869 20.0933 83.3869 22.36C83.3869 24.68 83.6935 26.3733 84.3069 27.44C84.9469 28.5067 85.9202 29.04 87.2269 29.04C88.5069 29.04 89.4669 28.5067 90.1069 27.44C90.7469 26.3467 91.0669 24.6667 91.0669 22.4C91.0669 20.08 90.7469 18.3867 90.1069 17.32C89.4935 16.2533 88.5335 15.72 87.2269 15.72Z" fill="#F2F7FF"/>
<path d="M59.2 70L57.76 64.04H49.68L48.28 70H41.48L49.84 42.28H57.8L66.16 70H59.2ZM50.8 59.28H56.64L53.72 47.04L50.8 59.28Z" fill="#5793ED"/>
<path d="M91.5537 48.08C93.2337 48.08 94.5804 48.6533 95.5938 49.8C96.6071 50.92 97.1138 52.48 97.1138 54.48V70H90.7938V55.56C90.7938 53.6667 90.1938 52.72 88.9938 52.72C88.3271 52.72 87.7404 52.9467 87.2337 53.4C86.7271 53.8533 86.2338 54.5467 85.7538 55.48V70H79.4338V55.56C79.4338 53.6667 78.8338 52.72 77.6338 52.72C76.9938 52.72 76.4071 52.96 75.8737 53.44C75.3671 53.8933 74.8738 54.5733 74.3938 55.48V70H68.0738V48.76H73.5938L74.0338 51.24C74.8604 50.1733 75.7671 49.3867 76.7538 48.88C77.7671 48.3467 78.9137 48.08 80.1937 48.08C81.3937 48.08 82.4204 48.3733 83.2738 48.96C84.1538 49.5467 84.7937 50.3733 85.1937 51.44C86.0471 50.2933 86.9804 49.4533 87.9938 48.92C89.0338 48.36 90.2204 48.08 91.5537 48.08Z" fill="#F2F7FF"/>
<path d="M118.743 63.84C118.743 64.64 118.849 65.2267 119.063 65.6C119.303 65.9733 119.676 66.2533 120.183 66.44L118.863 70.56C117.556 70.4533 116.489 70.1733 115.663 69.72C114.836 69.24 114.196 68.4933 113.743 67.48C112.356 69.6133 110.223 70.68 107.343 70.68C105.236 70.68 103.556 70.0667 102.303 68.84C101.049 67.6133 100.423 66.0133 100.423 64.04C100.423 61.72 101.276 59.9467 102.983 58.72C104.689 57.4933 107.156 56.88 110.383 56.88H112.543V55.96C112.543 54.7067 112.276 53.8533 111.743 53.4C111.209 52.92 110.276 52.68 108.943 52.68C108.249 52.68 107.409 52.7867 106.423 53C105.436 53.1867 104.423 53.4533 103.383 53.8L101.943 49.64C103.276 49.1333 104.636 48.7467 106.023 48.48C107.436 48.2133 108.743 48.08 109.943 48.08C112.983 48.08 115.209 48.7067 116.623 49.96C118.036 51.2133 118.743 53.0933 118.743 55.6V63.84ZM109.183 66.16C110.623 66.16 111.743 65.48 112.543 64.12V60.36H110.983C109.543 60.36 108.463 60.6133 107.743 61.12C107.049 61.6267 106.703 62.4133 106.703 63.48C106.703 64.3333 106.916 65 107.343 65.48C107.796 65.9333 108.409 66.16 109.183 66.16Z" fill="#F2F7FF"/>
<path d="M135.297 48.16C136.07 48.16 136.777 48.2533 137.417 48.44L136.417 54.56C135.617 54.3733 134.977 54.28 134.497 54.28C133.244 54.28 132.284 54.72 131.617 55.6C130.977 56.4533 130.47 57.7467 130.097 59.48V70H123.777V48.76H129.297L129.817 52.88C130.297 51.4133 131.017 50.2667 131.977 49.44C132.964 48.5867 134.07 48.16 135.297 48.16Z" fill="#F2F7FF"/>
<path d="M155.305 63.84C155.305 64.64 155.412 65.2267 155.625 65.6C155.865 65.9733 156.239 66.2533 156.745 66.44L155.425 70.56C154.119 70.4533 153.052 70.1733 152.225 69.72C151.399 69.24 150.759 68.4933 150.305 67.48C148.919 69.6133 146.785 70.68 143.905 70.68C141.799 70.68 140.119 70.0667 138.865 68.84C137.612 67.6133 136.985 66.0133 136.985 64.04C136.985 61.72 137.839 59.9467 139.545 58.72C141.252 57.4933 143.719 56.88 146.945 56.88H149.105V55.96C149.105 54.7067 148.839 53.8533 148.305 53.4C147.772 52.92 146.839 52.68 145.505 52.68C144.812 52.68 143.972 52.7867 142.985 53C141.999 53.1867 140.985 53.4533 139.945 53.8L138.505 49.64C139.839 49.1333 141.199 48.7467 142.585 48.48C143.999 48.2133 145.305 48.08 146.505 48.08C149.545 48.08 151.772 48.7067 153.185 49.96C154.599 51.2133 155.305 53.0933 155.305 55.6V63.84ZM145.745 66.16C147.185 66.16 148.305 65.48 149.105 64.12V60.36H147.545C146.105 60.36 145.025 60.6133 144.305 61.12C143.612 61.6267 143.265 62.4133 143.265 63.48C143.265 64.3333 143.479 65 143.905 65.48C144.359 65.9333 144.972 66.16 145.745 66.16Z" fill="#F2F7FF"/>
<path d="M165.589 70.68C163.749 70.68 162.309 70.16 161.269 69.12C160.255 68.0533 159.749 66.5467 159.749 64.6V40.32L166.069 39.64V64.36C166.069 65.24 166.429 65.68 167.149 65.68C167.522 65.68 167.869 65.6133 168.189 65.48L169.429 69.96C168.282 70.44 167.002 70.68 165.589 70.68Z" fill="#F2F7FF"/>
</svg>
