<svg width="30" height="30" viewBox="0 0 30 30" fill="none" xmlns="http://www.w3.org/2000/svg">
<path d="M28.25 30C24.7778 30 21.3472 29.2431 17.9583 27.7292C14.5694 26.2153 11.4861 24.0694 8.70833 21.2917C5.93056 18.5139 3.78472 15.4306 2.27083 12.0417C0.756945 8.65278 0 5.22222 0 1.75C0 1.25 0.166667 0.833333 0.5 0.5C0.833333 0.166667 1.25 0 1.75 0H8.5C8.88889 0 9.23611 0.131944 9.54167 0.395833C9.84722 0.659722 10.0278 0.972222 10.0833 1.33333L11.1667 7.16667C11.2222 7.61111 11.2083 7.98611 11.125 8.29167C11.0417 8.59722 10.8889 8.86111 10.6667 9.08333L6.625 13.1667C7.18056 14.1944 7.84028 15.1875 8.60417 16.1458C9.36806 17.1042 10.2083 18.0278 11.125 18.9167C11.9861 19.7778 12.8889 20.5764 13.8333 21.3125C14.7778 22.0486 15.7778 22.7222 16.8333 23.3333L20.75 19.4167C21 19.1667 21.3264 18.9792 21.7292 18.8542C22.1319 18.7292 22.5278 18.6944 22.9167 18.75L28.6667 19.9167C29.0556 20.0278 29.375 20.2292 29.625 20.5208C29.875 20.8125 30 21.1389 30 21.5V28.25C30 28.75 29.8333 29.1667 29.5 29.5C29.1667 29.8333 28.75 30 28.25 30ZM5.04167 10L7.79167 7.25L7.08333 3.33333H3.375C3.51389 4.47222 3.70833 5.59722 3.95833 6.70833C4.20833 7.81944 4.56944 8.91667 5.04167 10ZM19.9583 24.9167C21.0417 25.3889 22.1458 25.7639 23.2708 26.0417C24.3958 26.3194 25.5278 26.5 26.6667 26.5833V22.9167L22.75 22.125L19.9583 24.9167Z" fill="#5793ED"/>
</svg>
