<svg width="50" height="50" viewBox="0 0 50 50" fill="none" xmlns="http://www.w3.org/2000/svg">
<path d="M2.38095 0C1.07969 0 0 1.07969 0 2.38095V47.619C0 48.9203 1.07969 50 2.38095 50H47.619C48.9203 50 50 48.9203 50 47.619V2.38095C50 1.07969 48.9203 0 47.619 0H2.38095ZM2.38095 2.38095H47.619V47.619H2.38095V2.38095ZM17.3642 11.9048C15.6499 11.9048 14.2785 12.0953 13.0976 12.4L13.0952 38.0952H16.0296V27.1787C16.4486 27.2156 16.8294 27.2159 17.3247 27.2159C19.6104 27.2159 22.0103 26.2653 23.3817 24.3606C24.3734 23.0653 24.9419 21.4653 24.9419 19.1034C24.9419 16.857 24.295 14.9886 23.0771 13.7695C21.7438 12.4743 19.7249 11.9048 17.3642 11.9048ZM17.8292 13.8579C21.1042 13.8579 22.1703 16.2168 22.1703 18.8453C22.1703 22.4644 20.2271 24.3699 17.3712 24.3699C16.8759 24.3699 16.5329 24.3324 16.19 24.2955V14.0485C16.571 13.9331 17.1435 13.8579 17.8292 13.8579ZM32.9962 19.0476C30.0307 19.0476 27.739 21.1531 27.739 24.1746C27.739 26.2781 29.0804 27.8848 31.5709 29.4527C33.5066 30.6765 34.0193 31.6714 34.0193 33.0869C34.0193 34.7309 32.9151 35.7631 31.2151 35.7631C29.9889 35.7631 28.8034 35.2277 28.132 34.8075L27.381 37.0233C28.2107 37.6733 29.7527 38.0952 31.1361 38.0952C34.298 38.0952 36.9048 36.2977 36.9048 32.587C36.9048 30.0251 35.1674 28.3026 32.9567 26.9252C31.059 25.7026 30.585 24.9752 30.585 23.7514C30.585 22.5288 31.4132 21.3821 33.0334 21.3821C34.0608 21.3821 34.8527 21.7262 35.6027 22.2238L36.3932 20.0033C35.6028 19.5068 34.4986 19.0476 32.9962 19.0476Z" fill="#5793ED"/>
</svg>
