<svg width="80" height="80" viewBox="0 0 80 80" fill="none" xmlns="http://www.w3.org/2000/svg">
<path d="M40 0C17.9292 0 0 17.9292 0 40C0 62.0708 17.9292 80 40 80C62.0708 80 80 62.0708 80 40C80 17.9292 62.0708 0 40 0ZM40 3.47826C60.191 3.47826 76.5217 19.809 76.5217 40C76.5217 60.191 60.191 76.5217 40 76.5217C19.809 76.5217 3.47826 60.191 3.47826 40C3.47826 19.809 19.809 3.47826 40 3.47826ZM60.9375 15.6352C60.6848 15.6279 60.4335 15.6758 60.2012 15.7755C59.9689 15.8752 59.7612 16.0244 59.5924 16.2126L42.0584 35.2072C41.4082 34.9275 40.7078 34.783 40 34.7826C38.6163 34.7826 37.2892 35.3323 36.3107 36.3107C35.3323 37.2892 34.7826 38.6163 34.7826 40C34.7826 41.3837 35.3323 42.7108 36.3107 43.6893C37.2892 44.6677 38.6163 45.2174 40 45.2174C40.2913 45.2179 40.5822 45.1941 40.8696 45.1461L47.1739 56.498C47.285 56.6978 47.4343 56.8739 47.6134 57.016C47.7925 57.1582 47.9978 57.2637 48.2177 57.3264C48.4375 57.3892 48.6676 57.4081 48.8948 57.382C49.1219 57.3558 49.3417 57.2852 49.5416 57.1741C49.7414 57.063 49.9174 56.9137 50.0596 56.7346C50.2017 56.5555 50.3071 56.3501 50.3699 56.1302C50.4327 55.9104 50.4515 55.6803 50.4253 55.4531C50.3992 55.226 50.3285 55.0062 50.2174 54.8064L43.9062 43.4511C44.7493 42.499 45.2155 41.2717 45.2174 40C45.217 39.1511 45.0094 38.3151 44.6128 37.5645L62.1467 18.57C62.3775 18.3265 62.5329 18.0214 62.5942 17.6916C62.6555 17.3618 62.6201 17.0212 62.4923 16.7111C62.3645 16.4009 62.1497 16.1343 61.8739 15.9434C61.598 15.7525 61.2728 15.6455 60.9375 15.6352Z" fill="#5793ED"/>
</svg>
