<svg width="50" height="50" viewBox="0 0 50 50" fill="none" xmlns="http://www.w3.org/2000/svg">
<path d="M1.19048 0C0.874752 3.15677e-05 0.571968 0.125466 0.348717 0.348717C0.125466 0.571968 3.15677e-05 0.874752 0 1.19048V48.8095C3.15677e-05 49.1252 0.125466 49.428 0.348717 49.6513C0.571968 49.8745 0.874752 50 1.19048 50H48.8095C49.1252 50 49.428 49.8745 49.6513 49.6513C49.8745 49.428 50 49.1252 50 48.8095V1.19048C50 0.874752 49.8745 0.571968 49.6513 0.348717C49.428 0.125466 49.1252 3.15677e-05 48.8095 0H1.19048ZM2.38095 2.38095H47.619V47.619H2.38095V2.38095ZM13.0952 22.619V26.7206H19.0476V45.2381H23.8095V26.7206H29.7619V22.619H13.0952ZM38.9183 22.6307C35.2105 22.6159 30.9733 23.7395 30.9733 28.9574C30.9733 35.7788 40.1646 35.7805 40.1646 38.8579C40.1646 39.1496 40.2883 41.2691 37.0443 41.2691C33.8002 41.2691 31.0965 39.2299 31.0965 39.2299V44.1802C31.0965 44.1802 45.2404 48.7548 45.2404 38.4394C45.2392 31.7429 35.9631 32.0778 35.9631 28.7505C35.9631 27.4612 36.879 26.2556 39.4159 26.2556C41.9528 26.2556 44.1988 27.753 44.1988 27.753L44.3662 23.3422C44.3662 23.3422 41.8023 22.6422 38.9183 22.6307Z" fill="#5793ED"/>
</svg>
