<svg width="270" height="270" viewBox="0 0 270 270" fill="none" xmlns="http://www.w3.org/2000/svg">
<path d="M199.786 155.146C199.26 154.893 179.576 145.2 176.079 143.942C174.651 143.429 173.121 142.928 171.494 142.928C168.836 142.928 166.603 144.253 164.864 146.855C162.898 149.777 156.945 156.735 155.106 158.813C154.866 159.088 154.538 159.416 154.342 159.416C154.166 159.416 151.119 158.161 150.197 157.761C129.082 148.589 113.055 126.532 110.857 122.812C110.543 122.278 110.53 122.035 110.527 122.035C110.604 121.752 111.315 121.04 111.681 120.672C112.753 119.612 113.915 118.214 115.038 116.861C115.571 116.22 116.104 115.578 116.627 114.974C118.257 113.077 118.983 111.604 119.825 109.898L120.266 109.012C122.321 104.929 120.566 101.484 119.998 100.372C119.533 99.4406 111.222 79.3817 110.338 77.2743C108.213 72.189 105.405 69.8213 101.503 69.8213C101.141 69.8213 101.503 69.8213 99.985 69.8853C98.1362 69.9633 88.0682 71.2888 83.6167 74.0948C78.8961 77.071 70.9101 86.5578 70.9101 103.242C70.9101 118.257 80.439 132.435 84.5302 137.827C84.6319 137.963 84.8186 138.239 85.0894 138.635C100.757 161.517 120.289 178.474 140.09 186.384C159.152 193.998 168.178 194.879 173.31 194.879H173.311C175.468 194.879 177.194 194.709 178.716 194.56L179.682 194.467C186.268 193.884 200.739 186.385 204.031 177.237C206.624 170.032 207.307 162.16 205.582 159.303C204.401 157.361 202.364 156.383 199.786 155.146Z" fill="#5793ED"/>
<path d="M137.396 0C64.2721 0 4.7809 59.0441 4.7809 131.619C4.7809 155.092 11.0628 178.069 22.9629 198.179L0.185641 265.368C-0.238645 266.621 0.0769392 268.006 1.00353 268.949C1.67239 269.632 2.5797 270 3.50629 270C3.86132 270 4.21898 269.947 4.56788 269.835L74.6276 247.572C93.7994 257.816 115.468 263.223 137.397 263.223C210.515 263.224 270 204.186 270 131.619C270 59.0441 210.515 0 137.396 0ZM137.396 235.806C116.762 235.806 96.7755 229.848 79.5954 218.575C79.0178 218.195 78.3471 218 77.6721 218C77.3153 218 76.9577 218.055 76.6097 218.165L41.514 229.321L52.8435 195.896C53.21 194.815 53.0267 193.622 52.3517 192.699C39.269 174.823 32.3533 153.703 32.3533 131.619C32.3533 74.1623 79.4754 27.4173 137.396 27.4173C195.309 27.4173 242.426 74.1623 242.426 131.619C242.426 189.068 195.311 235.806 137.396 235.806Z" fill="#5793ED"/>
</svg>
